<svg width="80" height="80" viewBox="0 0 80 80" fill="none" xmlns="http://www.w3.org/2000/svg">
<path d="M9.36562 9.46873C9.21749 5.20936 12.5356 1.28186 17.0212 1.28186H62.9837C67.4694 1.28186 70.7875 5.20936 70.6394 9.46873C70.4969 13.56 70.6819 18.86 72.0156 23.1812C73.3537 27.5162 75.61 30.2556 79.3056 30.6081V34.6C75.61 34.9519 73.3537 37.6919 72.0156 42.0269C70.6819 46.3481 70.4969 51.6481 70.6394 55.7394C70.7875 59.9987 67.4694 63.9256 62.9837 63.9256H17.0212C12.5356 63.9256 9.21749 59.9981 9.36562 55.7394C9.50812 51.6481 9.32312 46.3481 7.98874 42.0269C6.65124 37.6925 4.38874 34.9525 0.693115 34.6V30.6081C4.38874 30.2562 6.65124 27.5162 7.98874 23.1812C9.32312 18.86 9.50749 13.56 9.36562 9.46873Z" fill="url(#paint0_linear_719_3633)"/>
<g filter="url(#filter0_d_719_3633)">
<path d="M41.9437 49.4838C49.2056 49.4838 53.5812 45.9281 53.5812 40.0638C53.5812 35.6306 50.4594 32.4213 45.8231 31.9131V31.7281C49.2294 31.1744 51.9019 28.0113 51.9019 24.4781C51.9019 19.445 47.9281 16.1663 41.8725 16.1663H28.2475V49.4838H41.9437ZM33.5462 20.3919H40.5956C44.4269 20.3919 46.6037 22.1 46.6037 25.1944C46.6037 28.4956 44.0725 30.3431 39.4837 30.3431H33.5462V20.3919ZM33.5462 45.2588V34.2913H40.5481C45.5625 34.2913 48.1644 36.1381 48.1644 39.74C48.1644 43.3419 45.6338 45.2588 40.8556 45.2588H33.5462Z" fill="url(#paint1_linear_719_3633)"/>
<path d="M41.9437 49.4838C49.2056 49.4838 53.5812 45.9281 53.5812 40.0638C53.5812 35.6306 50.4594 32.4213 45.8231 31.9131V31.7281C49.2294 31.1744 51.9019 28.0113 51.9019 24.4781C51.9019 19.445 47.9281 16.1663 41.8725 16.1663H28.2475V49.4838H41.9437ZM33.5462 20.3919H40.5956C44.4269 20.3919 46.6037 22.1 46.6037 25.1944C46.6037 28.4956 44.0725 30.3431 39.4837 30.3431H33.5462V20.3919ZM33.5462 45.2588V34.2913H40.5481C45.5625 34.2913 48.1644 36.1381 48.1644 39.74C48.1644 43.3419 45.6338 45.2588 40.8556 45.2588H33.5462Z" fill="white"/>
</g>
<path d="M7.12378 75.8937V64.8075H10.2782C11.2363 64.8075 11.9969 65.0419 12.5588 65.5112C13.1207 65.98 13.4013 66.5906 13.4013 67.3431C13.4013 67.9725 13.2313 68.5187 12.8913 68.9825C12.5507 69.4462 12.0819 69.7762 11.4838 69.9719V70.0031C12.2313 70.0906 12.8294 70.3737 13.2775 70.8531C13.7257 71.3275 13.95 71.9456 13.95 72.7087C13.95 73.6569 13.61 74.425 12.93 75.0125C12.2494 75.6 11.3913 75.8937 10.355 75.8937H7.12378ZM8.42253 65.9825V69.5619H9.75253C10.4638 69.5619 11.0232 69.3919 11.43 69.0519C11.8369 68.7062 12.0407 68.2212 12.0407 67.5981C12.0407 66.5212 11.3319 65.9825 9.9144 65.9825H8.42253ZM8.42253 70.7294V74.7187H10.185C10.9475 74.7187 11.5382 74.5381 11.9557 74.1775C12.3782 73.8169 12.5894 73.3219 12.5894 72.6931C12.5894 71.3837 11.6975 70.7294 9.9144 70.7294H8.42253ZM19.3388 76.0812C18.1688 76.0812 17.2332 75.7125 16.5325 74.9756C15.8369 74.2337 15.4888 73.2519 15.4888 72.03C15.4888 70.7006 15.8519 69.6619 16.5788 68.9144C17.3057 68.1675 18.2875 67.7937 19.5244 67.7937C20.7044 67.7937 21.6244 68.1569 22.2844 68.8837C22.9488 69.6106 23.2813 70.6181 23.2813 71.9062C23.2813 73.1694 22.9232 74.1819 22.2063 74.945C21.4957 75.7025 20.5394 76.0812 19.3388 76.0812ZM19.4313 68.8606C18.6169 68.8606 17.9732 69.1387 17.4988 69.6956C17.0244 70.2469 16.7875 71.0094 16.7875 71.9837C16.7875 72.9219 17.0269 73.6619 17.5063 74.2025C17.9857 74.7444 18.6269 75.015 19.4313 75.015C20.2507 75.015 20.88 74.7494 21.3182 74.2181C21.7613 73.6875 21.9825 72.9325 21.9825 71.9531C21.9825 70.9637 21.7613 70.2006 21.3182 69.6644C20.88 69.1287 20.2507 68.8606 19.4313 68.8606ZM28.6163 76.0812C27.4463 76.0812 26.5107 75.7125 25.81 74.9756C25.1144 74.2337 24.7663 73.2519 24.7663 72.03C24.7663 70.7006 25.1294 69.6619 25.8563 68.9144C26.5832 68.1675 27.565 67.7937 28.8019 67.7937C29.9819 67.7937 30.9019 68.1569 31.5619 68.8837C32.2269 69.6106 32.5594 70.6181 32.5594 71.9062C32.5594 73.1694 32.2013 74.1819 31.4844 74.945C30.7732 75.7025 29.8175 76.0812 28.6163 76.0812ZM28.7088 68.8606C27.8944 68.8606 27.2507 69.1387 26.7763 69.6956C26.3019 70.2469 26.065 71.0094 26.065 71.9837C26.065 72.9219 26.3044 73.6619 26.7838 74.2025C27.2632 74.7444 27.9044 75.015 28.7088 75.015C29.5282 75.015 30.1575 74.7494 30.5957 74.2181C31.0388 73.6875 31.26 72.9325 31.26 71.9531C31.26 70.9637 31.0388 70.2006 30.5957 69.6644C30.1575 69.1287 29.5288 68.8606 28.7088 68.8606ZM38.2563 75.8187C37.9575 75.9837 37.5632 76.0662 37.0732 76.0662C35.6869 76.0662 34.9938 75.2931 34.9938 73.7469V69.0619H33.6332V67.9794H34.9938V66.0469L36.2619 65.6369V67.9794H38.2557V69.0619H36.2619V73.5225C36.2619 74.0531 36.3519 74.4325 36.5325 74.6594C36.7125 74.8862 37.0113 74.9994 37.4288 74.9994C37.7482 74.9994 38.0244 74.9119 38.2563 74.7369V75.8187ZM39.47 75.6062V74.2456C40.1607 74.7556 40.9207 75.0106 41.7507 75.0106C42.8638 75.0106 43.4207 74.64 43.4207 73.8981C43.4207 73.6862 43.3719 73.5087 43.2738 73.3644C43.1737 73.2074 43.0419 73.0731 42.8869 72.97C42.709 72.8471 42.517 72.7459 42.315 72.6687C42.0821 72.5692 41.8475 72.4738 41.6113 72.3825C41.2954 72.2587 40.9859 72.1194 40.6838 71.965C40.4417 71.8356 40.218 71.6744 40.0188 71.4856C39.8468 71.3098 39.7103 71.1025 39.6169 70.875C39.5294 70.6481 39.4857 70.3831 39.4857 70.0787C39.4857 69.7081 39.5707 69.3806 39.7407 69.0969C39.91 68.8089 40.1425 68.5631 40.4207 68.3781C40.7154 68.177 41.0424 68.0278 41.3875 67.9369C41.7557 67.8385 42.1352 67.7892 42.5163 67.79C43.2019 67.79 43.815 67.9087 44.3563 68.1462V69.4294C43.7738 69.0475 43.1038 68.8569 42.3457 68.8569C42.1082 68.8569 41.895 68.885 41.7044 68.9419C41.5275 68.9874 41.36 69.0635 41.2094 69.1669C41.0788 69.2603 40.9706 69.3815 40.8925 69.5219C40.8195 69.66 40.7823 69.8143 40.7844 69.9706C40.7844 70.1762 40.8207 70.3487 40.8925 70.4881C40.9694 70.6275 41.08 70.7512 41.225 70.8594C41.3688 70.9675 41.5444 71.0656 41.7507 71.1531C41.9569 71.2406 42.1913 71.3362 42.4544 71.4394C42.8044 71.5731 43.1188 71.7125 43.3975 71.8569C43.6559 71.9825 43.8954 72.1439 44.1088 72.3362C44.3044 72.5112 44.4538 72.715 44.5569 72.9469C44.665 73.1787 44.7194 73.4544 44.7194 73.7737C44.7194 74.1656 44.6319 74.5056 44.4569 74.7944C44.2863 75.0831 44.0569 75.3225 43.7682 75.5131C43.4627 75.7111 43.1255 75.8551 42.7713 75.9387C42.384 76.0331 41.9867 76.0799 41.5882 76.0781C40.7738 76.0781 40.0682 75.9206 39.47 75.6062ZM50.3388 75.8187C50.0407 75.9837 49.6463 76.0662 49.1563 76.0662C47.77 76.0662 47.0769 75.2931 47.0769 73.7469V69.0619H45.7163V67.9794H47.0769V66.0469L48.345 65.6369V67.9794H50.3388V69.0619H48.345V73.5225C48.345 74.0531 48.435 74.4325 48.6157 74.6594C48.7957 74.8862 49.0944 74.9994 49.5119 74.9994C49.8313 74.9994 50.1075 74.9119 50.3394 74.7369L50.3388 75.8187ZM56.1613 69.2625C55.9394 69.0925 55.62 69.0075 55.2025 69.0075C54.6613 69.0075 54.2075 69.2625 53.8419 69.7725C53.4813 70.2831 53.3007 70.9787 53.3007 71.86V75.8956H52.0331V67.9794H53.3007V69.6106H53.3319C53.5125 69.0537 53.7882 68.6212 54.1588 68.3119C54.5294 67.9975 54.9444 67.84 55.4038 67.84C55.7332 67.84 55.9857 67.8762 56.1613 67.9487V69.2625ZM63.2057 75.8937H61.9375V74.6562H61.9063C61.3557 75.605 60.5438 76.0794 59.4725 76.0794C58.6838 76.0794 58.065 75.8706 57.6163 75.4531C57.1731 75.0356 56.9519 74.4812 56.9519 73.7906C56.9519 72.3112 57.8225 71.4512 59.5644 71.2094L61.9382 70.8762C61.9382 69.5312 61.3944 68.8587 60.3069 68.8587C59.3538 68.8587 58.4932 69.1831 57.725 69.8325V68.5337C58.5032 68.0394 59.4 67.7919 60.4157 67.7919C62.2763 67.7919 63.2063 68.7762 63.2063 70.745L63.2057 75.8937ZM61.9369 71.8894L60.0282 72.1519C59.4407 72.2344 58.9969 72.3812 58.6982 72.5925C58.3994 72.7987 58.25 73.1675 58.25 73.6981C58.25 74.085 58.3869 74.4019 58.66 74.6494C58.9382 74.8912 59.3069 75.0119 59.7657 75.0119C60.3944 75.0119 60.9125 74.7931 61.3194 74.3556C61.7319 73.9125 61.9382 73.3531 61.9382 72.6775L61.9369 71.8894ZM66.8932 74.75H66.8619V79.5356H65.5944V67.9775H66.8625V69.3687H66.8932C67.5169 68.3175 68.4294 67.7919 69.63 67.7919C70.6507 67.7919 71.4469 68.1475 72.0188 68.8587C72.5907 69.5644 72.8769 70.5131 72.8769 71.7037C72.8769 73.0281 72.555 74.09 71.9107 74.8887C71.2663 75.6825 70.385 76.0794 69.2669 76.0794C68.2413 76.0794 67.45 75.6369 66.8932 74.75ZM66.8619 71.5569V72.6631C66.8619 73.3175 67.0732 73.8737 67.4963 74.3325C67.9244 74.7862 68.465 75.0131 69.1194 75.0131C69.8875 75.0131 70.4882 74.7194 70.9213 74.1319C71.3588 73.5444 71.5775 72.7275 71.5775 71.6806C71.5775 70.7994 71.3744 70.1087 70.9675 69.6087C70.5606 69.1087 70.0088 68.8587 69.3132 68.8587C68.5757 68.8587 67.9832 69.1162 67.535 69.6319C67.0863 70.1425 66.8619 70.7837 66.8619 71.5569Z" fill="#7952B3"/>
<defs>
<filter id="filter0_d_719_3633" x="24.3175" y="13.2193" width="33.1937" height="41.1775" filterUnits="userSpaceOnUse" color-interpolation-filters="sRGB">
<feFlood flood-opacity="0" result="BackgroundImageFix"/>
<feColorMatrix in="SourceAlpha" type="matrix" values="0 0 0 0 0 0 0 0 0 0 0 0 0 0 0 0 0 0 127 0" result="hardAlpha"/>
<feOffset dy="0.983"/>
<feGaussianBlur stdDeviation="1.965"/>
<feColorMatrix type="matrix" values="0 0 0 0 0 0 0 0 0 0 0 0 0 0 0 0 0 0 0.15 0"/>
<feBlend mode="normal" in2="BackgroundImageFix" result="effect1_dropShadow_719_3633"/>
<feBlend mode="normal" in="SourceGraphic" in2="effect1_dropShadow_719_3633" result="shape"/>
</filter>
<linearGradient id="paint0_linear_719_3633" x1="12.375" y1="2.93999" x2="81.0675" y2="57.4687" gradientUnits="userSpaceOnUse">
<stop stop-color="#9013FE"/>
<stop offset="1" stop-color="#6610F2"/>
</linearGradient>
<linearGradient id="paint1_linear_719_3633" x1="30.645" y1="18.3588" x2="45.9988" y2="44.3263" gradientUnits="userSpaceOnUse">
<stop stop-color="white"/>
<stop offset="1" stop-color="#F1E5FC"/>
</linearGradient>
</defs>
</svg>
