<svg width="80" height="80" viewBox="0 0 80 80" fill="none" xmlns="http://www.w3.org/2000/svg">
<path d="M55.7712 3.66002H51.1562L55.9556 8.86814V11.3475H46.0706V8.44439H50.8694L46.0706 3.23627V0.754395H55.7712V3.66002ZM44.1106 3.66002H39.4956L44.295 8.86814V11.3475H34.4094V8.44439H39.2087L34.4094 3.23627V0.754395H44.1106V3.66002ZM32.5644 3.77877H27.5844V8.32314H32.5644V11.3475H24.0444V0.754395H32.5644V3.77877Z" fill="#131313"/>
<path d="M17.2581 72.9412L12.1975 16.1831H67.8019L62.7369 72.9319L39.9656 79.2456L17.2581 72.9412Z" fill="#1572B6"/>
<path d="M40.0006 74.42L58.4 69.3187L62.7287 20.8243H40.0006V74.42Z" fill="#33A9DC"/>
<path d="M40 41.3875H49.2112L49.8481 34.2593H40V27.2981H57.4556L57.2888 29.1656L55.5781 48.3481H40V41.3875Z" fill="white"/>
<path d="M40.0419 59.4662L40.0113 59.475L32.2588 57.3812L31.7625 51.8293H24.7756L25.7513 62.7593L40.01 66.7175L40.0425 66.7081L40.0419 59.4662Z" fill="#EBEBEB"/>
<path d="M48.62 48.0537L47.7813 57.3762L40.0175 59.4718V66.7143L54.2881 62.7593L54.3931 61.5831L55.6044 48.0537H48.62Z" fill="white"/>
<path d="M40.0244 27.2981V34.2587H23.21L23.07 32.6943L22.7531 29.1656L22.5862 27.2981H40.0244ZM40 41.3881V48.3493H32.3456L32.2062 46.785L31.8887 43.2556L31.7219 41.3881H40Z" fill="#EBEBEB"/>
</svg>
