<svg width="80" height="80" viewBox="0 0 80 80" fill="none" xmlns="http://www.w3.org/2000/svg">
<path d="M17.4087 72.7212L12.3819 16.3394H67.6181L62.5862 72.7125L39.9662 78.9831L17.4087 72.7212Z" fill="#E44D26"/>
<path d="M40 74.19L58.2775 69.1225L62.5781 20.95H40V74.19Z" fill="#F16529"/>
<path d="M40 41.8613H30.8494L30.2181 34.7794H40V27.8644H22.6606L22.8256 29.72L24.5256 48.7756H40V41.8613ZM40 59.8194L39.9694 59.8275L32.2687 57.7475L31.7762 52.2331H24.8344L25.8031 63.0906L39.9681 67.0231L40 67.0138V59.8194Z" fill="#EBEBEB"/>
<path d="M17.5212 1.01685H21.035V4.48935H24.25V1.01685H27.7644V11.5306H24.25V8.00997H21.0356V11.5306H17.5212V1.01685ZM32.385 4.50372H29.2912V1.01685H38.9944V4.50372H35.8994V11.5306H32.385V4.50372ZM40.5344 1.01685H44.1981L46.4525 4.71122L48.7044 1.01685H52.37V11.5306H48.8694V6.31935L46.4525 10.0575H46.3912L43.9725 6.31935V11.5306H40.5337V1.01685H40.5344ZM54.1194 1.01685H57.6344V8.0556H62.5762V11.5312H54.1194V1.01685Z" fill="black"/>
<path d="M39.9763 41.8613V48.7756H48.4913L47.6888 57.7438L39.9763 59.8256V67.0194L54.1525 63.0906L54.2563 61.9219L55.8813 43.7175L56.05 41.8613H54.1863H39.9763ZM39.9763 27.8644V34.7794H56.6794L56.8175 33.225L57.1331 29.72L57.2988 27.8644H39.9763Z" fill="white"/>
</svg>
