<svg width="80" height="80" viewBox="0 0 80 80" fill="none" xmlns="http://www.w3.org/2000/svg">
<path d="M17.3488 12.7631C12.7538 19.3662 13.3256 27.9581 16.8363 34.9756L17.0931 35.4744L17.2575 35.7906L17.36 35.9725L17.5431 36.3C17.6519 36.4919 17.7638 36.6825 17.8781 36.8744L18.0694 37.1894C18.1963 37.3931 18.3256 37.5956 18.4581 37.7975L18.6238 38.0531C18.8069 38.3262 18.9938 38.5981 19.1869 38.8662L19.2031 38.8869L19.2981 39.015C19.465 39.245 19.6369 39.4725 19.8113 39.6981L20.0044 39.9437C20.16 40.1394 20.3181 40.3331 20.4788 40.5275L20.66 40.7437C20.8756 40.9975 21.0963 41.2512 21.3206 41.4987L21.3338 41.5125L21.3594 41.5406C21.5788 41.78 21.8031 42.0144 22.0313 42.2487L22.2463 42.4656C22.4225 42.6431 22.6019 42.8175 22.7825 42.9912L23.0019 43.2C23.2438 43.4275 23.4875 43.6512 23.7369 43.8687L23.7481 43.8787L23.8763 43.9875C24.0956 44.1781 24.3188 44.3656 24.5438 44.5512L24.82 44.7719C25.0038 44.9187 25.1894 45.0644 25.3763 45.2069L25.6744 45.4325C25.8806 45.5844 26.0888 45.7337 26.2988 45.8806L26.5256 46.0419L26.5888 46.0869C26.7875 46.2244 26.9919 46.3562 27.195 46.4881L27.4575 46.6631C27.77 46.86 28.0869 47.0556 28.4069 47.2444L28.6694 47.3925C28.905 47.5281 29.1419 47.6619 29.3819 47.7919L29.7763 47.9956L30.2863 48.2606L30.4038 48.3175L30.6125 48.4181C30.8794 48.5456 31.1488 48.6712 31.4206 48.7925L31.5913 48.8687C31.9025 49.005 32.2169 49.1356 32.5338 49.2612L32.7638 49.3512C33.0569 49.465 33.3544 49.5756 33.6531 49.6806L33.765 49.7194C34.0925 49.8344 34.4238 49.94 34.7569 50.0444L34.9963 50.1156C35.335 50.2181 35.6706 50.3394 36.02 50.4044C58.2406 54.4562 64.695 37.0519 64.695 37.0519C59.2738 44.1144 49.6519 45.9769 40.535 43.9031C40.1894 43.825 39.8544 43.7169 39.5175 43.6181L39.2638 43.5406C38.9352 43.4404 38.6084 43.3341 38.2838 43.2219L38.1494 43.1737C37.8599 43.0712 37.5719 42.9643 37.2856 42.8531L37.0431 42.7581C36.73 42.6344 36.4181 42.505 36.1106 42.3706L35.9244 42.2875C35.6606 42.1689 35.3983 42.047 35.1375 41.9219L34.91 41.8125C34.7056 41.7131 34.5038 41.6075 34.3013 41.5031L33.8956 41.29C33.6488 41.1587 33.4069 41.0212 33.1663 40.8812L32.92 40.7444C32.6004 40.5551 32.2837 40.3609 31.97 40.1619L31.7138 39.9912C31.4862 39.8451 31.2609 39.6953 31.0381 39.5419L30.82 39.3887C30.6053 39.2375 30.3924 39.0837 30.1813 38.9275L29.8981 38.7131C29.7044 38.565 29.5119 38.4156 29.3219 38.2625L29.065 38.0562C28.8225 37.8575 28.5831 37.6562 28.3469 37.4506L28.2681 37.385C28.0131 37.16 27.7614 36.9312 27.5131 36.6987L27.3006 36.4937C27.1166 36.3198 26.9357 36.1425 26.7581 35.9619L26.5456 35.7494C26.3194 35.5181 26.0975 35.2837 25.88 35.0456L25.8469 35.01C25.6169 34.7584 25.3919 34.5023 25.1719 34.2419L24.995 34.0319C24.8304 33.8339 24.6685 33.6337 24.5094 33.4312L24.3313 33.2094C24.1406 32.9631 23.9535 32.7141 23.77 32.4625C18.7088 25.5581 16.89 16.0356 20.9356 8.21562M31.6113 7.19937C28.2888 11.9806 28.4688 18.3825 31.0613 23.4387C31.495 24.2887 31.9859 25.1083 32.5306 25.8919C33.0281 26.6062 33.5806 27.455 34.2413 28.0281C34.4806 28.2919 34.7313 28.5494 34.9869 28.8019L35.1831 28.9962C35.4313 29.2369 35.6838 29.4737 35.9444 29.7037L35.9756 29.7306L35.9831 29.7381C36.2719 29.9912 36.57 30.2344 36.8725 30.4744L37.0744 30.6319C37.3781 30.8644 37.6875 31.0931 38.005 31.3112L38.0319 31.3319L38.4569 31.6112L38.6581 31.7444C38.885 31.89 39.1144 32.0312 39.3481 32.1669L39.4456 32.2244C39.6469 32.34 39.8506 32.4537 40.055 32.565L40.2719 32.6775L40.6981 32.8987L40.7625 32.9281C41.0556 33.0719 41.3506 33.2112 41.6525 33.3425L41.8488 33.4237C42.09 33.5256 42.3331 33.6256 42.5781 33.7194L42.8906 33.8344C43.1131 33.9169 43.3356 33.9925 43.5606 34.0675L43.8631 34.1644C44.1825 34.2631 44.4988 34.3887 44.8313 34.4444C61.9875 37.2862 65.9481 24.0769 65.9481 24.0769C62.3781 29.2194 55.4638 31.6725 48.0856 29.7575C47.7595 29.6715 47.4355 29.5779 47.1138 29.4769L46.8219 29.3825C46.5939 29.3091 46.3674 29.2311 46.1425 29.1487L45.8356 29.0344C45.5901 28.9398 45.3461 28.8413 45.1038 28.7387L44.9069 28.6556C44.6052 28.5241 44.3068 28.3853 44.0119 28.2394L43.5631 28.0112L43.3044 27.8781C43.1131 27.7744 42.9231 27.6669 42.7363 27.5569L42.6006 27.48C42.3686 27.3448 42.1393 27.2048 41.9131 27.06L41.7056 26.9219L41.2606 26.6269C40.9459 26.4085 40.6367 26.1824 40.3331 25.9487L40.1244 25.7837C36.895 23.2344 34.335 19.7494 33.1181 15.7981C31.8425 11.7 32.1175 7.09999 34.3275 3.36624M43.6069 3.04249C41.6481 5.92499 41.4556 9.50561 42.815 12.6894C44.2481 16.0687 47.185 18.7194 50.6131 19.9769L51.0394 20.1237L51.2269 20.1837C51.4288 20.2475 51.6294 20.3212 51.8381 20.36C61.3113 22.1906 63.8806 15.4994 64.5644 14.5137C62.3138 17.7544 58.5313 18.5325 53.89 17.4056C53.5103 17.3087 53.1357 17.193 52.7675 17.0587C52.3137 16.8973 51.8685 16.7125 51.4338 16.505C50.6092 16.1079 49.826 15.6301 49.0956 15.0787C44.9425 11.9275 42.3631 5.91687 45.0731 1.02124" fill="#0868AC"/>
<path d="M41.4743 60.1844H38.8331C38.7583 60.1873 38.6865 60.2142 38.6283 60.2611C38.5701 60.3081 38.5286 60.3726 38.51 60.445L37.5725 64.7825L36.635 69.12C36.6165 69.1924 36.5752 69.2569 36.517 69.3039C36.4589 69.3509 36.3871 69.3778 36.3125 69.3806H34.4431C32.5937 69.3806 32.8075 68.1012 33.1862 66.3488L33.1975 66.2956L33.2387 66.0744L33.2462 66.0331L33.3306 65.5831L33.4212 65.1013L33.5175 64.6106L33.9437 62.5281L34.3706 60.4456C34.3787 60.4138 34.3793 60.3805 34.3723 60.3485C34.3652 60.3164 34.3507 60.2864 34.33 60.261C34.3093 60.2355 34.2829 60.2153 34.2529 60.2018C34.2229 60.1884 34.1903 60.1822 34.1575 60.1838H31.4468C31.3722 60.1865 31.3004 60.2134 31.2425 60.2606C31.1845 60.3077 31.1435 60.3725 31.1256 60.445L30.5425 63.21L29.96 65.9756L29.9587 65.9794L29.905 66.2369C29.2337 69.3012 29.4112 72.2244 33.06 72.3163L33.1662 72.3181H38.8931C38.9678 72.3153 39.0395 72.2884 39.0977 72.2414C39.1558 72.1945 39.1972 72.1299 39.2156 72.0575L40.4506 66.2519L41.6856 60.4456C41.7162 60.3019 41.6212 60.185 41.4743 60.1844ZM13.1893 60.1538H10.2893C10.2144 60.1567 10.1424 60.1835 10.0838 60.2303C10.0252 60.277 9.98312 60.3413 9.9637 60.4138L9.6887 61.6275L9.4137 62.8413C9.38183 62.9844 9.47495 63.1013 9.62183 63.1013H12.5443C12.6192 63.0985 12.6911 63.0716 12.7495 63.0247C12.8078 62.9777 12.8494 62.9132 12.8681 62.8406L13.1337 61.6275L13.3993 60.4144C13.43 60.2713 13.3362 60.1538 13.1893 60.1538ZM12.3481 63.9313H9.42495C9.35006 63.9343 9.27809 63.9611 9.21952 64.0079C9.16095 64.0546 9.11884 64.1189 9.09933 64.1913L8.6887 66.01L8.2787 67.8281L8.16433 68.3494L7.76995 70.2056L7.3762 72.0625C7.34558 72.2056 7.28245 72.4369 7.23558 72.5756C7.23558 72.5756 6.68933 74.2006 5.7712 74.1819L5.6562 74.1794L4.86183 74.165C4.7872 74.1668 4.71449 74.1924 4.65554 74.2382C4.59659 74.284 4.55388 74.3475 4.5337 74.4194L4.23058 75.6938L3.92808 76.9675C3.8937 77.11 3.9862 77.2275 4.13183 77.23C4.65245 77.2363 5.8187 77.2494 6.52433 77.2494C8.81745 77.2494 10.0268 75.9788 10.8012 72.3225L11.7081 68.1263L12.5587 64.1906C12.5893 64.0488 12.4943 63.9313 12.3481 63.9313ZM66.1712 62.9475L66.05 62.4469L65.9306 61.9344L65.8699 61.6756C65.6325 60.7525 64.9356 60.2206 63.4218 60.2206L61.0656 60.2181L58.8956 60.215H56.4537C56.3791 60.2178 56.3074 60.2446 56.2493 60.2916C56.1913 60.3386 56.15 60.4032 56.1318 60.4756L56.0237 60.9856L55.8962 61.5881L55.8606 61.7575L54.7612 66.9075L53.7175 71.7963C53.6862 71.94 53.6762 72.1163 53.6937 72.1875C53.7112 72.2594 53.9931 72.3181 54.1393 72.3181H56.3418C56.4887 72.3181 56.6743 72.2919 56.7543 72.2594C56.8343 72.2269 56.9524 71.9388 56.9818 71.7956L57.3731 69.8588L57.765 67.9213L57.7656 67.9181L57.8181 67.66L58.2931 65.435L58.7125 63.47C58.7309 63.3977 58.7722 63.3333 58.8302 63.2864C58.8882 63.2394 58.9598 63.2124 59.0343 63.2094L65.965 63.2063C66.1118 63.2075 66.2043 63.0906 66.1712 62.9475ZM75.0931 58.4225L74.5593 58.4244H72.3412C72.2599 58.4289 72.1806 58.451 72.1086 58.4891C72.0367 58.5272 71.9738 58.5804 71.9243 58.645L67.0187 65.8313C66.9362 65.9525 66.8418 65.935 66.8093 65.7925L66.4481 64.2094C66.4286 64.1369 66.3864 64.0725 66.3277 64.0257C66.269 63.9789 66.1969 63.9522 66.1218 63.9494H62.9687C62.8218 63.9494 62.735 64.0644 62.775 64.205L64.1881 69.1556C64.2281 69.2969 64.2312 69.5281 64.195 69.6706L63.5793 72.0663C63.5424 72.2088 63.6325 72.3244 63.7793 72.3244H66.8962C66.9716 72.3213 67.0442 72.2948 67.1038 72.2485C67.1634 72.2022 67.207 72.1385 67.2287 72.0663L67.845 69.6706C67.8937 69.5018 67.9704 69.3423 68.0718 69.1988L76.0356 58.6294C76.1243 58.5119 76.0762 58.4163 75.93 58.4175L75.0931 58.4225ZM50.0393 64.6219V64.6194C50.0285 64.6949 49.9912 64.764 49.9341 64.8145C49.8769 64.865 49.8037 64.8935 49.7275 64.895H45.7293C45.5906 64.895 45.5206 64.8013 45.5412 64.685L45.545 64.6756L45.5424 64.6769L45.5443 64.6638L45.5625 64.5956C45.9443 63.5806 46.7218 62.9144 48.1837 62.9144C49.83 62.9138 50.1512 63.7175 50.0393 64.6219ZM48.8662 60.0069C43.7343 60.0069 42.5181 63.1219 41.8356 66.2663C41.1537 69.4713 41.2118 72.4669 46.5231 72.4669H47.1668L47.3268 72.4663H47.3643L48.0018 72.4644H48.0131C49.4156 72.4588 50.8225 72.4481 51.3918 72.4438C51.466 72.44 51.537 72.4124 51.5943 72.3652C51.6516 72.3179 51.6922 72.2534 51.71 72.1813L51.925 71.1306L51.9668 70.9263L52.2231 69.6725C52.2312 69.6407 52.2318 69.6075 52.2248 69.5754C52.2177 69.5434 52.2033 69.5134 52.1825 69.488C52.1618 69.4626 52.1354 69.4424 52.1054 69.4291C52.0754 69.4157 52.0427 69.4096 52.01 69.4113H47.2356C45.3362 69.4113 44.7725 68.9069 44.9806 67.4231H52.6125L52.6118 67.4238L52.6168 67.4231C52.6772 67.4205 52.7355 67.4006 52.7849 67.3656C52.8342 67.3307 52.8724 67.2823 52.895 67.2262L52.9131 67.16L52.9125 67.1606C54.0456 62.8863 53.7206 60.0075 48.8662 60.0069ZM24.61 64.6056L24.5375 64.8613L23.9612 66.9044L23.385 68.9463C23.3614 69.0186 23.3162 69.082 23.2556 69.1279C23.1949 69.1739 23.1216 69.2001 23.0456 69.2031H19.9956C17.6818 69.2031 17.1181 67.3931 17.6818 64.7244C18.245 61.9944 19.3493 60.2975 21.6268 60.1256C24.7393 59.8906 25.3618 62.0794 24.61 64.6056ZM26.7025 69.0463C26.7025 69.0463 28.1406 65.5538 28.4668 63.5375C28.9125 60.8381 27.5606 56.9219 22.3393 56.9219C17.1481 56.9219 14.8931 60.66 14.0331 64.7244C13.1731 68.8181 14.3 72.4075 19.4618 72.3781L23.5343 72.3631L27.34 72.3494C27.4154 72.3456 27.4878 72.3188 27.5475 72.2725C27.6072 72.2262 27.6513 72.1627 27.6737 72.0906L28.3368 69.5619C28.3737 69.4194 28.2843 69.3031 28.1375 69.3019L27.5018 69.2981L26.8662 69.2944C26.7418 69.2938 26.6706 69.2125 26.6856 69.1056L26.7025 69.0463ZM52.4025 66.7081C52.4025 66.7311 52.398 66.7539 52.3893 66.7751C52.3805 66.7964 52.3676 66.8157 52.3514 66.832C52.3352 66.8482 52.3159 66.8612 52.2947 66.87C52.2735 66.8788 52.2507 66.8834 52.2278 66.8834C52.2048 66.8835 52.182 66.879 52.1608 66.8702C52.1395 66.8615 52.1202 66.8486 52.1039 66.8324C52.0877 66.8162 52.0747 66.7969 52.0659 66.7757C52.0571 66.7545 52.0525 66.7317 52.0525 66.7088C52.0524 66.6623 52.0707 66.6178 52.1035 66.5849C52.1362 66.552 52.1807 66.5335 52.2271 66.5334C52.2736 66.5334 52.3181 66.5517 52.351 66.5845C52.3839 66.6172 52.4024 66.6617 52.4025 66.7081Z" fill="#131B28"/>
</svg>
