<svg width="80" height="80" viewBox="0 0 80 80" fill="none" xmlns="http://www.w3.org/2000/svg">
<path d="M4.15501 42.095C4.15501 44.5387 3.92814 45.3344 3.34501 45.92C2.69751 46.4262 1.85564 46.7044 0.981262 46.7044L1.20876 48.1006C2.56126 48.115 3.87439 47.7025 4.90001 46.9406C5.45189 46.3594 5.86189 45.6906 6.10626 44.9706C6.34918 44.2578 6.42342 43.4983 6.32314 42.7519V33.505H4.15501V42.095ZM20.3319 40.9937C20.3319 42.0412 20.3319 42.9762 20.4275 43.7869H18.5013L18.3719 42.1244C17.9688 42.7119 17.3925 43.1981 16.7019 43.5306C15.996 43.8684 15.2212 44.0371 14.4388 44.0231C12.5613 44.0231 10.3269 43.1444 10.3269 39.5556V33.5912H12.4975V39.1775C12.4975 41.1181 13.1931 42.4169 15.1513 42.4169C15.5518 42.4221 15.9501 42.3569 16.3281 42.2244C16.6927 42.0972 17.0305 41.9035 17.3244 41.6531C17.6023 41.4158 17.8275 41.1231 17.9856 40.7937C18.1381 40.4771 18.2151 40.1295 18.2106 39.7781V33.5206H20.3781V40.9375L20.3319 40.9937ZM24.4438 36.9144C24.4438 35.615 24.4438 34.5531 24.3456 33.5912H26.2894L26.3844 35.3369C26.8188 34.7044 27.4413 34.1869 28.1888 33.8381C28.951 33.4856 29.7859 33.3189 30.625 33.3519C33.5081 33.3519 35.6763 35.4344 35.6763 38.5331C35.6763 42.1925 33.0713 44.0087 30.2538 44.0087C29.5392 44.0376 28.8274 43.905 28.1713 43.6206C27.5294 43.3394 26.98 42.92 26.5794 42.4019V47.9881H24.4438V36.9144ZM26.5794 39.6362C26.5844 39.89 26.6188 40.1437 26.6775 40.3906C26.8606 41.0106 27.2775 41.56 27.8638 41.9531C28.45 42.3462 29.1725 42.5562 29.9144 42.5562C32.1975 42.5562 33.54 40.95 33.54 38.6187C33.54 36.5794 32.2775 34.8337 29.995 34.8337C29.0919 34.8975 28.2469 35.2419 27.6175 35.8056C26.99 36.3694 26.6188 37.1094 26.58 37.8906L26.5794 39.6362ZM39.5413 33.5812L42.1488 39.6C42.4258 40.2843 42.6788 40.978 42.9075 41.68C43.135 41.0669 43.3763 40.2831 43.67 39.5581L46.0325 33.5812H48.3156L45.0781 40.8425C43.4594 44.3337 42.4706 46.135 40.9813 47.2237C40.2319 47.8175 39.3163 48.23 38.3275 48.425L37.7931 46.8625C38.4724 46.6716 39.1133 46.3643 39.6875 45.9544C40.4763 45.3981 41.1038 44.69 41.5163 43.8869C41.6033 43.7505 41.6638 43.5988 41.6944 43.44C41.6745 43.27 41.625 43.1048 41.5481 42.9519L37.1463 33.5519H39.5088L39.5413 33.5812ZM54.0725 30.6519V33.5837H57.18V34.9806H54.0725V40.4831C54.0725 41.7406 54.4944 42.4656 55.6913 42.4656C56.1153 42.4713 56.5387 42.4287 56.9531 42.3387L57.0506 43.7375C56.4258 43.9221 55.7756 44.0062 55.1244 43.9869C54.6936 44.0108 54.2621 43.9536 53.8525 43.8181C53.4566 43.6888 53.0911 43.4804 52.7781 43.2056C52.1194 42.4437 51.8188 41.4969 51.9363 40.5519V34.9656H50.0906V33.5694H51.9675V31.0837L54.0725 30.6519ZM61.1769 39.0112C61.1331 39.485 61.2081 39.9612 61.3988 40.405C61.5973 40.8627 61.8981 41.2687 62.2781 41.5919C62.6688 41.9287 63.1375 42.1875 63.655 42.3512C64.17 42.5169 64.7238 42.5806 65.2713 42.5437C66.374 42.5676 67.4716 42.3872 68.5088 42.0119L68.8819 43.4081C67.6095 43.8575 66.2659 44.071 64.9169 44.0381C64.1231 44.0844 63.33 43.9819 62.5881 43.74C61.8633 43.5059 61.1931 43.1282 60.6175 42.6294C60.0613 42.1412 59.6313 41.555 59.3625 40.9106C59.0952 40.2757 58.9896 39.5845 59.055 38.8987C59.055 35.825 61.1769 33.3962 64.6413 33.3962C68.5256 33.3962 69.4975 36.3281 69.4975 38.2006C69.5163 38.4887 69.5163 38.7769 69.4975 39.065H61.1275L61.1769 39.0112ZM67.5219 37.615C67.585 37.2404 67.5541 36.8559 67.4319 36.4962C67.3033 36.1257 67.0909 35.7899 66.8113 35.515C66.5162 35.2217 66.1639 34.9923 65.7763 34.8412C65.3738 34.6816 64.9449 34.5989 64.5119 34.5975C63.6231 34.6537 62.7881 34.9925 62.175 35.5519C61.56 36.1081 61.2106 36.8431 61.1938 37.6144L67.5219 37.615ZM72.7875 36.7556C72.7875 35.5569 72.7875 34.5212 72.6906 33.5719H74.6344V35.5687H74.7313C74.9344 34.9537 75.3563 34.4062 75.935 34.0062C76.5163 33.6062 77.2269 33.3719 77.9688 33.335C78.1713 33.3131 78.3788 33.3131 78.5838 33.335V35.0806C78.3362 35.0562 78.0869 35.0562 77.8394 35.0806C77.1044 35.105 76.4038 35.3587 75.8719 35.7956C75.3369 36.2331 75.0075 36.8237 74.9413 37.4537C74.8806 37.7412 74.8488 38.03 74.8438 38.32V43.7525H72.7075V36.77L72.7875 36.7556Z" fill="#4E4E4E"/>
<path d="M68.6037 4.55064C68.6433 5.49016 68.4064 6.42065 67.9225 7.22689C67.4399 8.02915 66.7304 8.6705 65.8837 9.07002C65.0384 9.46683 64.0938 9.60178 63.1712 9.45752C62.2471 9.31349 61.3869 8.89722 60.7006 8.26189C60.0114 7.6227 59.5261 6.79433 59.3055 5.88056C59.0849 4.9668 59.1389 4.00825 59.4606 3.12502C59.7788 2.24351 60.3505 1.47572 61.1037 0.918142C61.8553 0.363266 62.7554 0.0453222 63.6887 0.00501665C64.308 -0.021078 64.9262 0.0757257 65.5079 0.289841C66.0895 0.503956 66.623 0.831142 67.0775 1.25252C68.0003 2.10704 68.548 3.2916 68.6012 4.54814L68.6037 4.55064Z" fill="#767677"/>
<path d="M41.0987 60.4937C28.5375 60.4937 17.5681 55.8913 11.87 49.0769C13.9829 55.1782 17.9356 60.4743 23.1837 64.2356C28.4098 67.9799 34.6772 69.9939 41.1062 69.995C47.5348 69.9926 53.8016 67.9787 59.0281 64.2356C64.2753 60.4745 68.2265 55.1782 70.3368 49.0769C64.6287 55.8913 53.6593 60.4937 41.0987 60.4937ZM41.0937 16.1769C53.6549 16.1769 64.6262 20.7812 70.3224 27.5925C68.2094 21.4914 64.2567 16.1956 59.0087 12.4344C53.7833 8.69017 47.5171 6.67517 41.0887 6.67188C34.6603 6.67517 28.3941 8.69017 23.1687 12.4344C17.92 16.1945 13.9674 21.4908 11.8562 27.5925C17.5637 20.7937 28.5325 16.1769 41.0937 16.1769Z" fill="#F37726"/>
<path d="M23.8525 73.74C23.904 74.9245 23.606 76.098 22.9956 77.1144C22.3891 78.1258 21.4951 78.9337 20.4276 79.435C19.3601 79.9364 18.1675 80.1085 17.0019 79.9294C15.8363 79.7493 14.7518 79.2227 13.8894 78.4181C13.0234 77.6121 12.4129 76.5696 12.1338 75.42C11.8581 74.2659 11.9261 73.0565 12.3294 71.9406C12.7338 70.8285 13.4574 69.8604 14.4094 69.1575C15.5182 68.3427 16.8764 67.9398 18.2502 68.0183C19.624 68.0968 20.9274 68.6517 21.9363 69.5875C23.0971 70.6662 23.7856 72.1592 23.8525 73.7425V73.74Z" fill="#9E9E9E"/>
<path d="M13.3031 14.6363C12.6127 14.6663 11.9291 14.4887 11.3406 14.1263C10.7482 13.7632 10.2766 13.2326 9.98535 12.6017C9.69414 11.9708 9.59636 11.2677 9.70436 10.5813C9.80806 9.89309 10.1142 9.25128 10.5837 8.73755C11.0491 8.22611 11.6557 7.86418 12.3269 7.69755C12.9975 7.53003 13.7032 7.57013 14.3506 7.81255C15.0003 8.05191 15.5633 8.48057 15.9669 9.04318C16.4434 9.70149 16.6788 10.5038 16.6334 11.3153C16.588 12.1267 16.2645 12.8978 15.7175 13.4988C15.4096 13.8385 15.0376 14.114 14.6228 14.3092C14.208 14.5044 13.7586 14.6156 13.3006 14.6363H13.3031Z" fill="#616262"/>
</svg>
