<?xml version="1.0" encoding="UTF-8" standalone="no"?>
<svg
   width="256"
   height="256"
   viewBox="0 0 256 256"
   version="1.1"
   preserveAspectRatio="xMidYMid"
   id="svg10"
   sodipodi:docname="javascript.svg"
   xml:space="preserve"
   xmlns:inkscape="http://www.inkscape.org/namespaces/inkscape"
   xmlns:sodipodi="http://sodipodi.sourceforge.net/DTD/sodipodi-0.dtd"
   xmlns="http://www.w3.org/2000/svg"
   xmlns:svg="http://www.w3.org/2000/svg"><defs
     id="defs14" /><sodipodi:namedview
     id="namedview12"
     pagecolor="#ffffff"
     bordercolor="#000000"
     borderopacity="0.25"
     inkscape:showpageshadow="2"
     inkscape:pageopacity="0.0"
     inkscape:pagecheckerboard="0"
     inkscape:deskcolor="#d1d1d1"
     showgrid="false" /><g
     id="g8"
     style="fill:#214674;fill-opacity:1"><path
       d="M 0,0 H 256 V 256 H 0 Z"
       fill="#F7DF1E"
       id="path2"
       style="fill:#214674;fill-opacity:1" /></g><style
     type="text/css"
     id="style2">
	.st0{fill:#FFFFFF;}
	.st1{fill:#F6F6F6;}
</style><path
     inkscape:connector-curvature="0"
     d="m 30.006581,140.39596 c 0,-3.65355 -2.348709,-7.56804 -9.133873,-7.82901 v -9.13388 c 6.785164,-0.26097 9.133873,-4.17549 9.133873,-7.82904 0,-6.52419 -1.043873,-10.69967 -1.043873,-18.267739 0,-11.482594 4.175488,-15.136142 13.570333,-15.136142 H 67.585948 V 90.55112 H 47.230461 c -4.436458,0 -5.741292,1.565799 -5.741292,7.307095 0,5.741295 0.521933,10.960645 0.521933,17.223885 0,8.09 -2.60968,11.22162 -7.829037,12.52645 v 0.52194 c 5.219356,1.30484 7.829037,4.43646 7.829037,12.52645 0,6.5242 -0.521933,11.4826 -0.521933,17.22387 0,5.74129 1.304834,7.56809 5.741292,7.56809 h 2.087743 v 8.09 h -6.785163 c -9.394845,0 -13.570333,-3.65355 -13.570333,-15.13615 0,-7.56806 1.043873,-11.48256 1.043873,-18.00679 z M 52.188845,82.983049 h 15.658078 v 58.717761 c 0,3.39258 1.565799,4.43646 2.870637,4.43646 0.521936,0 1.043874,0 1.826774,-0.26096 l 1.82677,11.48257 c -1.82677,0.7829 -4.436444,1.30485 -7.829031,1.30485 -10.699681,0 -14.353228,-7.04615 -14.353228,-17.74581 z m 44.103574,20.355491 c 14.875141,0 22.443231,10.96066 22.443231,25.31388 0,2.87065 -0.26097,5.21935 -0.52195,6.5242 H 86.114654 c 1.30485,8.08999 6.785168,11.48259 13.831314,11.48259 3.914522,0 7.568072,-1.04387 11.482562,-3.3926 l 5.21937,9.39485 c -5.48034,3.65354 -12.52646,6.00227 -18.78968,6.00227 -15.136146,0 -26.618724,-10.17774 -26.618724,-27.66259 -0.260963,-16.96291 12.265483,-27.6626 25.052923,-27.6626 z m 9.133861,22.18226 c 0,-6.00225 -2.60966,-10.4387 -8.87291,-10.4387 -4.958398,0 -9.133866,3.39258 -10.177748,10.4387 z m 22.18227,16.18001 c 4.69742,3.65355 9.13386,5.48033 13.57032,5.48033 4.69742,0 6.78516,-1.82678 6.78516,-4.43645 0,-3.3926 -5.21936,-5.21935 -10.69966,-7.3071 -6.26325,-2.34872 -13.8313,-6.78517 -13.8313,-15.39712 0,-9.65579 8.09,-16.44096 20.09452,-16.44096 8.08999,0 14.09227,3.39257 18.52871,6.78517 l -7.04615,9.39484 c -3.91449,-2.87064 -7.30709,-4.43647 -11.22161,-4.43647 -3.9145,0 -6.00224,1.56583 -6.00224,4.1755 0,3.39258 4.95837,4.69743 10.43871,6.78517 6.78514,2.3487 14.35322,6.26323 14.35322,15.91905 0,9.65579 -7.56808,16.96289 -21.66031,16.96289 -6.78517,0 -14.87517,-2.87066 -20.09454,-7.3071 z m 42.53775,0 c 4.69742,3.65355 9.13387,5.48033 13.57034,5.48033 4.6974,0 6.78515,-1.82678 6.78515,-4.43645 0,-3.3926 -5.21935,-5.21935 -10.69967,-7.3071 -6.26325,-2.34872 -13.83132,-6.78517 -13.83132,-15.39712 0,-9.65579 8.09002,-16.44096 20.09454,-16.44096 8.09,0 14.09227,3.39257 18.52871,6.78517 l -7.04611,9.39484 c -3.91453,-2.87064 -7.30713,-4.43647 -11.22165,-4.43647 -3.9145,0 -6.00225,1.56583 -6.00225,4.1755 0,3.39258 4.9584,4.69743 10.17775,6.78517 6.78517,2.3487 14.35324,6.26323 14.35324,15.91905 0,9.65579 -7.56807,16.96289 -21.66034,16.96289 -6.78517,0 -14.87517,-2.87066 -20.09452,-7.3071 z m 38.62323,23.48712 c 4.43645,0 5.7413,-1.56583 5.7413,-7.56807 0,-5.7413 -0.52193,-10.96065 -0.52193,-17.2239 0,-8.08999 2.60967,-11.22161 7.82905,-12.52644 v -0.52192 c -5.21938,-1.30485 -7.82905,-4.43647 -7.82905,-12.52647 0,-6.26322 0.52193,-11.74354 0.52193,-17.223889 0,-5.741297 -1.04386,-7.307096 -5.7413,-7.307096 h -2.08773 v -8.089996 h 6.78517 c 9.39483,0 13.57035,3.653548 13.57035,15.136142 0,7.307089 -1.0439,11.482569 -1.0439,18.267739 0,3.65355 2.34869,7.56807 9.13387,7.82904 v 9.13388 c -6.78518,0.26095 -9.13387,4.17546 -9.13387,7.82901 0,6.78518 1.0439,10.6997 1.0439,18.26777 0,11.48257 -4.17552,15.13612 -13.57035,15.13612 h -6.78517 v -8.35095 z"
     id="path2-3"
     style="fill:#ffffff;fill-opacity:1;stroke-width:1.08077" /></svg>
