<svg width="80" height="80" viewBox="0 0 80 80" fill="none" xmlns="http://www.w3.org/2000/svg">
<g clip-path="url(#clip0_719_3642)">
<path d="M71.4456 34.5337C71.4133 34.5337 71.3818 34.5432 71.355 34.5612L69.8887 35.4174C69.8611 35.4345 69.8385 35.4585 69.8229 35.487C69.8073 35.5155 69.7994 35.5475 69.8 35.5799V37.2924C69.8 37.3649 69.8344 37.4199 69.8887 37.4562L71.355 38.3112C71.3818 38.329 71.4134 38.3386 71.4456 38.3386C71.4779 38.3386 71.5094 38.329 71.5362 38.3112L73 37.4562C73.0279 37.4388 73.0508 37.4146 73.0667 37.3858C73.0826 37.357 73.0908 37.3247 73.0906 37.2918V35.5812C73.0908 35.5486 73.0825 35.5165 73.0666 35.488C73.0508 35.4596 73.0278 35.4357 73 35.4187L71.5356 34.5618C71.509 34.544 71.4777 34.5338 71.4456 34.5337ZM39.5125 44.7737C39.2456 44.7737 38.98 44.8387 38.7537 44.9662L31.5356 49.1706C31.3042 49.3063 31.1124 49.5003 30.9793 49.7332C30.8461 49.9661 30.7764 50.2298 30.7769 50.4981V58.8874C30.7769 59.4337 31.0656 59.9437 31.5356 60.2174L33.4356 61.3087C34.3581 61.7637 34.6837 61.7624 35.0994 61.7624C36.4556 61.7624 37.2337 60.9256 37.2337 59.4874V51.2093C37.2329 51.1517 37.2098 51.0966 37.1693 51.0557C37.1287 51.0148 37.0738 50.9912 37.0162 50.9899H36.095C36.0372 50.9909 35.982 51.0144 35.9412 51.0553C35.9003 51.0963 35.877 51.1515 35.8762 51.2093V59.4893C35.8762 60.1262 35.2081 60.7643 34.1412 60.2187L32.1694 59.0718C32.0969 59.0356 32.06 58.9431 32.06 58.8706V50.4793C32.06 50.4068 32.0969 50.3168 32.1694 50.2799L39.385 46.0943C39.4394 46.0581 39.5306 46.0581 39.6031 46.0943L46.8206 50.2799C46.8925 50.3168 46.9281 50.3887 46.9281 50.4799V58.8699C46.9281 58.9606 46.8925 59.0349 46.8206 59.0712L39.6031 63.2756C39.5487 63.3118 39.4575 63.3118 39.385 63.2756L37.5406 62.1637C37.4862 62.1274 37.4137 62.1093 37.3594 62.1456C36.8531 62.4368 36.7644 62.4749 36.2756 62.6387C36.1669 62.6749 35.9862 62.7468 36.3475 62.9468L38.7537 64.3856C38.9887 64.5124 39.2412 64.5849 39.5125 64.5849C39.7837 64.5849 40.0544 64.5131 40.2712 64.4224L47.4894 60.2181C47.7209 60.0818 47.9127 59.8874 48.0458 59.6541C48.1789 59.4208 48.2487 59.1567 48.2481 58.8881V50.4981C48.2481 49.9518 47.9594 49.4437 47.4894 49.1706L40.2712 44.9662C40.0389 44.8384 39.7777 44.7721 39.5125 44.7737ZM50.7812 48.6049C50.4108 48.6064 50.0561 48.7549 49.7951 49.0178C49.5341 49.2807 49.3882 49.6364 49.3894 50.0068C49.3884 50.3771 49.5344 50.7327 49.7954 50.9954C50.0563 51.2582 50.4109 51.4066 50.7812 51.4081C51.5419 51.4081 52.1737 50.7712 52.1737 50.0068C52.1718 49.6373 52.0247 49.2833 51.7643 49.0212C51.5038 48.7591 51.1507 48.6092 50.7812 48.6049ZM50.7625 48.8418C50.9166 48.8399 51.0695 48.8687 51.2124 48.9264C51.3552 48.9841 51.4852 49.0697 51.5947 49.1781C51.7042 49.2865 51.7911 49.4156 51.8502 49.5578C51.9094 49.7001 51.9397 49.8527 51.9394 50.0068C51.9394 50.6443 51.4144 51.1906 50.7631 51.1906C50.1306 51.1906 49.6056 50.6618 49.6056 50.0068C49.6056 49.3518 50.1481 48.8418 50.7625 48.8418ZM50.2569 49.2237V50.8249H50.5656V50.1899H50.8369C50.9456 50.1899 50.9812 50.2262 50.9994 50.3168C50.9994 50.3356 51.0531 50.7356 51.0531 50.8081H51.3781C51.3419 50.7356 51.3237 50.5168 51.3056 50.3893C51.2881 50.1893 51.2706 50.0437 51.0531 50.0256C51.1619 49.9887 51.3425 49.9343 51.3425 49.6431C51.3425 49.2243 50.98 49.2243 50.8 49.2243L50.2569 49.2237ZM50.5287 49.4787H50.7812C50.8725 49.4787 51.0162 49.4787 51.0162 49.6968C51.0162 49.7693 50.9812 49.9162 50.7812 49.9162H50.5281L50.5287 49.4787ZM41.485 50.7349C39.4225 50.7349 38.1925 51.6087 38.1925 53.0831C38.1925 54.6668 39.4225 55.1018 41.3944 55.3024C43.7631 55.5393 43.9444 55.8856 43.9444 56.3587C43.9444 57.1774 43.2919 57.5237 41.7725 57.5237C39.855 57.5237 39.4394 57.0499 39.2944 56.0856C39.2944 55.9762 39.2056 55.9043 39.0969 55.9043H38.1562C38.0988 55.905 38.0439 55.9282 38.0034 55.969C37.9629 56.0099 37.9401 56.065 37.94 56.1224C37.94 57.3599 38.5906 58.8162 41.7569 58.8162C44.035 58.8162 45.3556 57.9049 45.3556 56.3037C45.3556 54.7381 44.3056 54.3199 42.0819 54.0287C39.8381 53.7374 39.6037 53.5737 39.6037 53.0462C39.6037 52.6093 39.8025 52.0274 41.4662 52.0274C42.9494 52.0274 43.5094 52.3556 43.7269 53.3562C43.7378 53.4013 43.7632 53.4417 43.7992 53.471C43.8352 53.5004 43.8798 53.5171 43.9262 53.5187H44.8844C44.9394 53.5187 44.9937 53.4831 45.0306 53.4468C45.0642 53.3985 45.0827 53.3413 45.0837 53.2824C44.9394 51.5356 43.8006 50.7349 41.485 50.7349Z" fill="#5FA04E"/>
<path d="M53.795 15.4149C53.7181 15.4141 53.6423 15.4333 53.575 15.4706C53.505 15.5113 53.4467 15.5694 53.4056 15.6393C53.3646 15.7091 53.3422 15.7883 53.3407 15.8693V27.6999C53.3407 27.8087 53.2844 27.9187 53.1763 27.9912C53.1263 28.0181 53.0705 28.0321 53.0138 28.0321C52.9571 28.0321 52.9012 28.0181 52.8513 27.9912L50.935 26.8818C50.7944 26.8012 50.6352 26.7588 50.4732 26.7588C50.3111 26.7588 50.1519 26.8012 50.0113 26.8818L42.3438 31.3412C42.2019 31.4212 42.0837 31.5373 42.001 31.6776C41.9184 31.818 41.8743 31.9777 41.8732 32.1406V41.0406C41.8732 41.3681 42.0544 41.6781 42.3438 41.8418L50.0125 46.3012C50.153 46.3817 50.3122 46.424 50.4741 46.424C50.636 46.424 50.7951 46.3817 50.9357 46.3012L58.6038 41.8418C58.8932 41.6781 59.0744 41.3681 59.0744 41.0406V18.8549C59.0744 18.5093 58.8932 18.1987 58.6038 18.0356L54.0288 15.4706C53.9564 15.4342 53.876 15.4152 53.795 15.4149ZM8.5544 26.5187C8.41003 26.5187 8.26565 26.5712 8.1394 26.6437L0.470652 31.0868C0.326655 31.169 0.20715 31.288 0.124434 31.4317C0.041717 31.5754 -0.00122476 31.7385 2.6587e-05 31.9043L0.0187766 43.8431C0.0187766 44.0074 0.108152 44.1712 0.253152 44.2443C0.320254 44.2887 0.398939 44.3124 0.479402 44.3124C0.559865 44.3124 0.638549 44.2887 0.705652 44.2443L5.2644 41.6237C5.55378 41.4599 5.73315 41.1499 5.73315 40.8224V35.2349C5.73315 34.9074 5.9144 34.5974 6.2044 34.4337L8.1394 33.3056C8.28378 33.2143 8.44753 33.1781 8.61003 33.1781C8.77253 33.1781 8.93565 33.2143 9.06253 33.3056L10.9975 34.4337C11.2869 34.5974 11.4682 34.9074 11.4682 35.2349V40.8224C11.4682 41.1499 11.6482 41.4599 11.9369 41.6237L16.4594 44.2443C16.5298 44.2889 16.6114 44.3125 16.6947 44.3125C16.778 44.3125 16.8596 44.2889 16.93 44.2443C17.0018 44.205 17.0616 44.1469 17.103 44.0762C17.1444 44.0055 17.1658 43.925 17.165 43.8431V31.9043C17.165 31.5768 16.9838 31.2668 16.6938 31.1024L9.04378 26.6437C8.91513 26.5747 8.77407 26.532 8.62878 26.5181L8.5544 26.5187ZM71.4713 26.6499C71.3131 26.6499 71.1563 26.6912 71.0113 26.7737L63.3413 31.2306C63.0519 31.3943 62.8725 31.7043 62.8725 32.0324V40.9324C62.8725 41.2599 63.0519 41.5699 63.3413 41.7337L70.9563 46.1006C71.0934 46.181 71.2495 46.2234 71.4085 46.2234C71.5674 46.2234 71.7235 46.181 71.8606 46.1006L76.4732 43.5174C76.5449 43.478 76.6045 43.4199 76.6458 43.3492C76.687 43.2785 76.7084 43.198 76.7075 43.1162C76.7082 43.0346 76.6867 42.9543 76.6455 42.8839C76.6042 42.8135 76.5447 42.7555 76.4732 42.7162L68.7688 38.2562C68.6987 38.215 68.6404 38.1566 68.5993 38.0865C68.5583 38.0163 68.5359 37.9368 68.5344 37.8556V35.0706C68.5335 34.9889 68.5548 34.9085 68.5961 34.8381C68.6374 34.7676 68.6971 34.7097 68.7688 34.6706L71.175 33.2868C71.2455 33.2423 71.327 33.2187 71.4103 33.2187C71.4936 33.2187 71.5752 33.2423 71.6457 33.2868L74.0494 34.6699C74.1197 34.711 74.1784 34.7693 74.2198 34.8395C74.2611 34.9096 74.2838 34.9892 74.2857 35.0706V37.2549C74.2857 37.4193 74.3757 37.5831 74.52 37.6556C74.5905 37.7003 74.6722 37.724 74.7557 37.724C74.8391 37.724 74.9208 37.7003 74.9913 37.6556L79.5482 34.9806C79.6879 34.899 79.8034 34.7818 79.883 34.6409C79.9625 34.5 80.0031 34.3405 80.0007 34.1787V32.0131C80.0007 31.6856 79.8194 31.3774 79.5482 31.2131L71.9332 26.7731C71.7927 26.6927 71.6338 26.65 71.4719 26.6493L71.4713 26.6499ZM50.4732 33.2962C50.5138 33.2962 50.555 33.3056 50.5919 33.3243L53.2132 34.8531C53.2857 34.8893 53.3225 34.9793 53.3225 35.0524V38.1099C53.3225 38.2012 53.2857 38.2749 53.2132 38.3112L50.5913 39.8399C50.5545 39.8579 50.5141 39.8672 50.4732 39.8672C50.4322 39.8672 50.3918 39.8579 50.355 39.8399L47.7332 38.3112C47.6607 38.2749 47.6238 38.1831 47.6238 38.1099V35.0524C47.6238 34.9612 47.6613 34.8893 47.7332 34.8524L50.355 33.3243C50.3919 33.3059 50.4319 33.2962 50.4732 33.2962Z" fill="#333333"/>
<path d="M29.9888 26.8081C29.8484 26.7276 29.6893 26.6853 29.5275 26.6853C29.3657 26.6853 29.2067 26.7276 29.0663 26.8081L21.4513 31.2313C21.3115 31.3125 21.196 31.4295 21.1164 31.5702C21.0369 31.7109 20.9963 31.8703 20.9988 32.0319V40.895C20.9988 41.2231 21.18 41.5325 21.4513 41.6962L29.0663 46.1188C29.2067 46.1992 29.3657 46.2416 29.5275 46.2416C29.6893 46.2416 29.8484 46.1992 29.9888 46.1188L37.6031 41.6962C37.8925 41.5325 38.0556 41.2231 38.0556 40.895V32.0319C38.0556 31.7044 37.8744 31.3944 37.6031 31.2313L29.9888 26.8081Z" fill="url(#paint0_linear_719_3642)"/>
<path d="M37.6212 31.2313L29.9706 26.8082C29.8955 26.7701 29.8168 26.7397 29.7356 26.7175L21.1619 41.4775C21.2344 41.5688 21.3244 41.6413 21.415 41.6963L29.0662 46.1188C29.2831 46.2463 29.5362 46.2825 29.7712 46.2094L37.8206 31.395C37.7677 31.3258 37.6994 31.2698 37.6212 31.2313Z" fill="url(#paint1_linear_719_3642)"/>
<path d="M37.6213 41.6956C37.8388 41.5681 38.0013 41.35 38.0738 41.1131L29.6988 26.6987C29.4825 26.6625 29.2469 26.6806 29.0482 26.8081L21.4513 31.2125L29.645 46.2456C29.7532 46.2275 29.88 46.1912 29.9888 46.1362L37.6213 41.6956Z" fill="url(#paint2_linear_719_3642)"/>
</g>
<defs>
<linearGradient id="paint0_linear_719_3642" x1="32.6284" y1="30.1017" x2="25.6741" y2="44.2004" gradientUnits="userSpaceOnUse">
<stop stop-color="#3F873F"/>
<stop offset="0.33" stop-color="#3F8B3D"/>
<stop offset="0.637" stop-color="#3E9638"/>
<stop offset="0.934" stop-color="#3DA92E"/>
<stop offset="1" stop-color="#3DAE2B"/>
</linearGradient>
<linearGradient id="paint1_linear_719_3642" x1="28.3703" y1="37.4985" x2="47.7736" y2="23.2505" gradientUnits="userSpaceOnUse">
<stop offset="0.138" stop-color="#3F873F"/>
<stop offset="0.402" stop-color="#52A044"/>
<stop offset="0.713" stop-color="#64B749"/>
<stop offset="0.908" stop-color="#6ABF4B"/>
</linearGradient>
<linearGradient id="paint2_linear_719_3642" x1="20.7202" y1="36.4604" x2="38.3405" y2="36.4604" gradientUnits="userSpaceOnUse">
<stop offset="0.092" stop-color="#6ABF4B"/>
<stop offset="0.287" stop-color="#64B749"/>
<stop offset="0.598" stop-color="#52A044"/>
<stop offset="0.862" stop-color="#3F873F"/>
</linearGradient>
<clipPath id="clip0_719_3642">
<rect width="80" height="80" fill="white"/>
</clipPath>
</defs>
</svg>
