<svg width="80" height="80" viewBox="0 0 80 80" fill="none" xmlns="http://www.w3.org/2000/svg">
<path d="M7.09625 71.9463C5.57125 71.9463 4.02187 71.3163 3.04938 70.0806V76.7538H0V60.2819H2.75813L2.86687 62.0881C3.81312 60.695 5.49437 59.9594 7.09687 59.9613C10.17 59.9613 12.4369 62.5363 12.4369 65.9531C12.4369 69.3694 10.1687 71.9488 7.09562 71.9469L7.09625 71.9463ZM6.15188 62.225C4.37125 62.225 2.91813 63.6175 2.91813 65.9563C2.91813 68.295 4.3625 69.6875 6.15 69.6875C7.9375 69.6875 9.37875 68.295 9.37875 65.9563C9.37875 63.6175 7.93687 62.225 6.15125 62.225H6.15188ZM23.9281 71.6338L23.8225 69.8213C22.8775 71.2138 21.195 71.9494 19.5938 71.9494C16.5187 71.9494 14.255 69.3738 14.255 65.9575C14.255 62.5425 16.5144 59.9663 19.5938 59.9681C21.1944 59.9681 22.8775 60.7094 23.8225 62.0956L23.9287 60.2838H26.6875V71.635L23.9281 71.6338ZM20.54 62.2256C18.76 62.2256 17.3081 63.6181 17.3081 65.9569C17.3081 68.2956 18.7519 69.6881 20.5394 69.6881C22.3269 69.6881 23.7706 68.2956 23.7706 65.9588C23.7706 63.6213 22.3269 62.235 20.5394 62.2263L20.54 62.2256ZM37.3512 71.6363V65.35C37.3512 63.1431 36.5887 62.4069 35.1969 62.4069C33.7525 62.4069 32.1756 63.7194 32.1738 65.2963V71.6288H29.1275V60.2838H31.9206L32.0506 62.3869C32.8131 60.9413 34.5212 59.9694 36.255 59.9694C39.2756 59.9694 40.4075 62.0725 40.4075 64.8844V71.6363H37.3512ZM51.5737 71.6375L51.4675 69.8244C50.5231 71.2169 48.8419 71.9519 47.2381 71.9519C44.1644 71.9519 41.8994 69.3769 41.8994 65.9613C41.8994 62.5456 44.1594 59.9713 47.2381 59.9713C48.7612 59.9713 50.3125 60.6025 51.2844 61.8375V55.8731H54.3319V71.6381L51.5737 71.6375ZM48.1862 62.2356C46.3988 62.2356 44.9531 63.6281 44.9531 65.9669C44.9531 68.3056 46.3969 69.6963 48.1844 69.6981C49.9719 69.6981 51.4156 68.3056 51.4156 65.9669C51.4156 63.6281 49.9719 62.2356 48.1862 62.2356ZM65.7844 71.6394L65.68 69.8269C64.7337 71.2194 63.0513 71.9556 61.45 71.9538C58.3756 71.9538 56.1113 69.3788 56.1113 65.9638C56.1113 62.5481 58.3713 59.9725 61.45 59.9738C63.0513 59.9738 64.7337 60.7156 65.68 62.1019L65.7856 60.2894H68.5512V71.6394H65.7844ZM62.3962 62.2356C60.6094 62.2356 59.165 63.6281 59.165 65.9669C59.165 68.3056 60.6094 69.6981 62.3962 69.6981C64.1831 69.6981 65.6275 68.3056 65.6275 65.9669C65.6275 63.6281 64.1837 62.2356 62.3962 62.2356ZM75.2975 72.0088C73.6939 71.9961 72.1234 71.5513 70.7513 70.7213L71.25 68.6125C72.17 69.1644 73.5625 69.875 75.2438 69.875C76.4519 69.875 77.2937 69.5069 77.2937 68.56C77.2937 67.7469 76.4269 67.4569 74.8756 67.0894C72.0925 66.4844 71.0931 65.0138 71.0944 63.4106C71.0944 61.6306 72.4869 59.9431 75.5612 59.9431C77.4269 59.9431 79.055 60.7588 79.4169 60.9681L78.9231 62.9775C77.9306 62.3792 76.7981 62.0526 75.6394 62.0306C74.4044 62.0306 73.7994 62.4506 73.7994 63.1338C73.7994 63.895 74.5881 64.2375 75.7969 64.5263C78.7906 65.1575 80 66.5494 80 68.0744C80 70.5119 78.2125 72.0088 75.2975 72.0088ZM32.7738 6.17188H38.1869V17.4144H32.7738V6.17188ZM32.7738 29.2644H38.1869V40.5063H32.7738V29.2644Z" fill="#130754"/>
<path d="M32.7737 20.6975H38.1875V26.0013H32.7737V20.6975Z" fill="#FFCA00"/>
<path d="M24.0762 15.4156H29.49V52.7844H24.0762V15.4156ZM41.2912 38.5394H46.7056V49.7813H41.2912V38.5394ZM41.2912 15.4294H46.7056V26.6713H41.2912V15.4294Z" fill="#130754"/>
<path d="M41.2913 29.9525H46.7056V35.2556H41.2913V29.9525Z" fill="#E70488"/>
<path d="M49.8063 3.24622H55.2206V40.6137H49.8063V3.24622Z" fill="#130754"/>
</svg>
