<svg width="48" height="48" viewBox="0 0 48 48" fill="none" xmlns="http://www.w3.org/2000/svg">
<path d="M42.8571 0.000854492H5.14286C2.30357 0.000854492 0 2.30443 0 5.14371V42.858C0 45.6973 2.30357 48.0009 5.14286 48.0009H42.8571C45.6964 48.0009 48 45.6973 48 42.858V5.14371C48 2.30443 45.6964 0.000854492 42.8571 0.000854492ZM29.7107 41.1116C28.8107 41.2723 28.4786 40.7151 28.4786 40.2544C28.4786 39.6759 28.5 36.7187 28.5 34.3294C28.5 32.658 27.9429 31.5973 27.2893 31.0401C31.2536 30.6009 35.4321 30.0544 35.4321 23.208C35.4321 21.258 34.7357 20.283 33.6 19.0294C33.7821 18.5687 34.3929 16.6723 33.4179 14.208C31.9286 13.7473 28.5214 16.1259 28.5214 16.1259C27.1071 15.7294 25.575 15.5259 24.0643 15.5259C22.5536 15.5259 21.0214 15.7294 19.6071 16.1259C19.6071 16.1259 16.2 13.7473 14.7107 14.208C13.7357 16.6616 14.3357 18.558 14.5286 19.0294C13.3929 20.283 12.8571 21.258 12.8571 23.208C12.8571 30.0223 16.8536 30.6009 20.8179 31.0401C20.3036 31.5009 19.8429 32.2937 19.6821 33.4294C18.6643 33.8901 16.0607 34.683 14.5071 31.9401C13.5321 30.2473 11.775 30.108 11.775 30.108C10.0393 30.0866 11.6571 31.2009 11.6571 31.2009C12.8143 31.7366 13.6286 33.7937 13.6286 33.7937C14.6679 36.9759 19.6393 35.9044 19.6393 35.9044C19.6393 37.3937 19.6607 39.8151 19.6607 40.2544C19.6607 40.7151 19.3393 41.2723 18.4286 41.1116C11.3571 38.7437 6.40714 32.0151 6.40714 24.1509C6.40714 14.3151 13.9286 6.84728 23.7643 6.84728C33.6 6.84728 41.5714 14.3151 41.5714 24.1509C41.5821 32.0151 36.7821 38.7544 29.7107 41.1116ZM19.2 34.5651C18.9964 34.608 18.8036 34.5223 18.7821 34.383C18.7607 34.2223 18.9 34.083 19.1036 34.0401C19.3071 34.0187 19.5 34.1044 19.5214 34.2437C19.5536 34.383 19.4143 34.5223 19.2 34.5651ZM18.1821 34.4687C18.1821 34.608 18.0214 34.7259 17.8071 34.7259C17.5714 34.7473 17.4107 34.6294 17.4107 34.4687C17.4107 34.3294 17.5714 34.2116 17.7857 34.2116C17.9893 34.1901 18.1821 34.308 18.1821 34.4687ZM16.7143 34.3509C16.6714 34.4901 16.4571 34.5544 16.275 34.4901C16.0714 34.4473 15.9321 34.2866 15.975 34.1473C16.0179 34.008 16.2321 33.9437 16.4143 33.9866C16.6286 34.0509 16.7679 34.2116 16.7143 34.3509ZM15.3964 33.7723C15.3 33.8901 15.0964 33.8687 14.9357 33.708C14.775 33.5687 14.7321 33.3651 14.8393 33.2687C14.9357 33.1509 15.1393 33.1723 15.3 33.333C15.4393 33.4723 15.4929 33.6866 15.3964 33.7723ZM14.4214 32.7973C14.325 32.8616 14.1429 32.7973 14.025 32.6366C13.9071 32.4759 13.9071 32.2937 14.025 32.2187C14.1429 32.1223 14.325 32.1973 14.4214 32.358C14.5393 32.5187 14.5393 32.7116 14.4214 32.7973ZM13.725 31.758C13.6286 31.8544 13.4679 31.8009 13.35 31.6937C13.2321 31.5544 13.2107 31.3937 13.3071 31.3187C13.4036 31.2223 13.5643 31.2759 13.6821 31.383C13.8 31.5223 13.8214 31.683 13.725 31.758ZM13.0071 30.9651C12.9643 31.0616 12.825 31.083 12.7071 31.008C12.5679 30.9437 12.5036 30.8259 12.5464 30.7294C12.5893 30.6651 12.7071 30.633 12.8464 30.6866C12.9857 30.7616 13.05 30.8794 13.0071 30.9651Z" fill="#262626"/>
</svg>
