<svg width="48" height="48" viewBox="0 0 48 48" fill="none" xmlns="http://www.w3.org/2000/svg">
<path d="M40.8992 40.9004H33.7866V29.762C33.7866 27.1057 33.7393 23.6878 30.0872 23.6878C26.3831 23.6878 25.8154 26.5806 25.8154 29.5704V40.9004H18.7052V17.9944H25.5339V21.1237H25.6285C27.0217 18.7442 29.6094 17.3226 32.3651 17.4243C39.5746 17.4243 40.9016 22.1669 40.9016 28.3333L40.8992 40.9004ZM10.6795 14.8627C8.39935 14.8627 6.55201 13.0153 6.55201 10.7351C6.55201 8.45493 8.39935 6.60759 10.6795 6.60759C12.9597 6.60759 14.8071 8.45493 14.8071 10.7351C14.8071 13.0153 12.9597 14.8627 10.6795 14.8627ZM14.2347 40.9004H7.11497V17.9944H14.2347V40.9004ZM44.4449 0.00354293H3.54093C1.60844 -0.0177452 0.0236535 1.53156 0 3.46405V44.5359C0.0236535 46.4708 1.60844 48.0201 3.54093 47.9988H44.4449C46.3821 48.0225 47.974 46.4732 48 44.5359V3.46168C47.9716 1.52446 46.3797 -0.0248414 44.4449 0.00117747" fill="#262626"/>
</svg>
