<svg width="48" height="64" viewBox="0 0 48 64" fill="none" xmlns="http://www.w3.org/2000/svg">
<g clip-path="url(#clip0_773_2679)">
<path d="M2.43475e-06 0.121094L0 63.8948H20.9146C26.4992 63.8457 28.2001 63.1606 31.5667 61.8672L28.6155 56.7555C25.8422 58.1424 22.6081 58.2011 20.7251 58.1188H5.84392V0.121094H2.43475e-06Z" fill="white"/>
<path d="M10.5857 0.124172V5.90033L23.251 5.8972C35.6643 6.8154 42.0301 19.1526 42.1518 28.228V36.0797C41.8497 44.1888 37.9456 50.3123 32.9367 54.2606L35.9117 59.4135C42.0109 55.013 47.3816 47.5543 48 36.0838V28.4284C47.8928 16.3208 39.3402 -0.482727 20.2354 0.121048L10.5857 0.124172Z" fill="white"/>
</g>
<defs>
<clipPath id="clip0_773_2679">
<rect width="48" height="63.7895" fill="white" transform="translate(0 0.105225)"/>
</clipPath>
</defs>
</svg>
