<svg width="80" height="80" viewBox="0 0 80 80" fill="none" xmlns="http://www.w3.org/2000/svg">
<path d="M9.43188 26.025H13.8069V46.2769C11.5631 46.7031 9.915 46.8738 8.12563 46.8738C2.78438 46.8738 0 44.4588 0 39.8275C0 35.3675 2.955 32.47 7.52875 32.47C8.23875 32.47 8.77875 32.5263 9.43188 32.6969V26.025ZM9.43188 36.2188C8.92062 36.0488 8.49438 35.9919 7.955 35.9919C5.73875 35.9919 4.46063 37.3557 4.46063 39.7419C4.46063 42.0713 5.68188 43.35 7.92625 43.35C8.40938 43.35 8.8075 43.3213 9.4325 43.2363L9.43188 36.2188Z" fill="#092E20"/>
<path d="M20.7669 32.7812V42.9237C20.7669 46.4175 20.5113 48.0937 19.7444 49.5425C19.0338 50.9356 18.0963 51.8156 16.1644 52.7818L12.1019 50.85C14.0338 49.9406 14.9707 49.1456 15.5676 47.9237C16.1926 46.6737 16.3926 45.225 16.3926 41.4175V32.7812H20.7669ZM16.3919 26.0481H20.7669V30.5368H16.3919V26.0481ZM23.4101 33.7756C25.3413 32.8668 27.1882 32.4693 29.2057 32.4693C31.4494 32.4693 32.9269 33.0656 33.5807 34.2306C33.9494 34.8837 34.0632 35.7362 34.0632 37.5543V46.4462C32.1032 46.7306 29.6319 46.9293 27.8132 46.9293C24.1488 46.9293 22.5007 45.6506 22.5007 42.81C22.5007 39.7412 24.6882 38.3212 30.0576 37.8662V36.9006C30.0576 36.105 29.6601 35.8212 28.5519 35.8212C26.9332 35.8212 25.1144 36.2756 23.4094 37.1568L23.4101 33.7756ZM30.2563 40.7362C27.3588 41.02 26.4213 41.475 26.4213 42.6112C26.4213 43.4631 26.9613 43.8612 28.1544 43.8612C28.8076 43.8612 29.4044 43.805 30.2563 43.6625V40.7362ZM36.1951 33.4631C38.7801 32.7818 40.9107 32.4693 43.0701 32.4693C45.3144 32.4693 46.9338 32.98 47.9001 33.975C48.8094 34.9125 49.0932 35.9343 49.0932 38.1225V46.7018H44.7182V38.2937C44.7182 36.6175 44.1494 35.9925 42.5869 35.9925C41.9907 35.9925 41.4513 36.0487 40.5701 36.305V46.7025H36.1951V33.4631ZM50.7932 49.0881C52.3276 49.8837 53.8613 50.2531 55.4807 50.2531C58.3494 50.2531 59.5713 49.0881 59.5713 46.3037V46.2187C58.7194 46.645 57.8669 46.8156 56.7307 46.8156C52.8951 46.8156 50.4519 44.2868 50.4519 40.2812C50.4519 35.3093 54.0601 32.4968 60.4519 32.4968C62.3269 32.4968 64.0601 32.6956 66.1626 33.1218L64.6644 36.2781C63.4994 36.0506 64.5707 36.2468 63.6907 36.1618V36.6168L63.7469 38.4631L63.7757 40.8493C63.8044 41.4462 63.8044 42.0431 63.8326 42.6393V43.8331C63.8326 47.5831 63.5201 49.3437 62.5826 50.7925C61.2188 52.9237 58.8613 53.975 55.5088 53.975C53.8038 53.975 52.3276 53.7187 50.7926 53.1225V49.0875L50.7932 49.0881ZM59.4869 36.0193H59.0319C58.1801 35.9912 57.1857 36.2181 56.5032 36.6443C55.4526 37.2412 54.9126 38.3206 54.9126 39.855C54.9126 42.0425 55.9919 43.2925 57.9238 43.2925C58.5207 43.2925 59.0038 43.1787 59.5713 43.0087V41.5025C59.5713 40.9918 59.5432 40.4231 59.5432 39.8268L59.5151 37.81L59.4863 36.3606V36.02L59.4869 36.0193ZM72.9544 32.4125C77.3294 32.4125 80.0001 35.1681 80.0001 39.6281C80.0001 44.2025 77.2163 47.0718 72.7838 47.0718C68.4088 47.0718 65.7101 44.3156 65.7101 39.8843C65.7101 35.2812 68.4944 32.4125 72.9544 32.4125ZM72.8688 43.5487C74.5451 43.5487 75.5401 42.1562 75.5401 39.7418C75.5401 37.3556 74.5738 35.935 72.8982 35.935C71.1644 35.935 70.1701 37.3275 70.1701 39.7412C70.1701 42.1568 71.1644 43.5487 72.8688 43.5487Z" fill="#092E20"/>
</svg>
