<svg width="80" height="80" viewBox="0 0 80 80" fill="none" xmlns="http://www.w3.org/2000/svg">
<path d="M13.8469 44.265C13.8426 44.3238 13.8198 44.3798 13.7819 44.425C13.7293 44.4745 13.6656 44.5109 13.5963 44.5312C13.5113 44.5606 13.3975 44.5812 13.2544 44.5931C13.0738 44.6128 12.8922 44.6217 12.7106 44.62C12.4856 44.62 12.3031 44.6112 12.1625 44.5931C12.0465 44.5859 11.9318 44.5652 11.8206 44.5312C11.7556 44.5118 11.6971 44.4751 11.6513 44.425C11.6248 44.376 11.6135 44.3203 11.6188 44.265L11.9681 39.5693C11.9889 39.3265 11.9803 39.082 11.9425 38.8412C11.9186 38.6437 11.8542 38.4532 11.7531 38.2818C11.6701 38.1276 11.5437 38.0011 11.3894 37.9181C11.2419 37.8293 11.0588 37.785 10.84 37.785C10.5738 37.785 10.2969 37.8887 10.0094 38.0956C9.72188 38.3025 9.40313 38.6043 9.05438 39.0012L8.66313 44.265C8.65882 44.3238 8.63607 44.3798 8.59813 44.425C8.54302 44.4758 8.47627 44.5123 8.40375 44.5312C8.31875 44.5606 8.205 44.5812 8.06188 44.5931C7.88444 44.6126 7.706 44.6216 7.5275 44.62C7.30875 44.62 7.12875 44.6112 6.98813 44.5931C6.87214 44.5859 6.75739 44.5652 6.64625 44.5312C6.58122 44.5118 6.52268 44.4751 6.47688 44.425C6.44511 44.378 6.43054 44.3215 6.43563 44.265L6.785 39.5693C6.80578 39.3265 6.79717 39.082 6.75938 38.8412C6.73566 38.6449 6.67433 38.455 6.57875 38.2818C6.49577 38.1276 6.36928 38.0011 6.215 37.9181C6.04699 37.8256 5.85734 37.7797 5.66563 37.785C5.39313 37.785 5.11375 37.8887 4.82563 38.0956C4.53813 38.3025 4.2225 38.6043 3.87938 39.0012L3.4875 44.265C3.48319 44.3238 3.46045 44.3798 3.4225 44.425C3.36739 44.4758 3.30064 44.5123 3.22813 44.5312C3.14313 44.5606 3.02938 44.5812 2.88625 44.5931C2.70569 44.6128 2.52412 44.6217 2.3425 44.62C2.12375 44.62 1.94375 44.6112 1.80313 44.5931C1.68714 44.5859 1.57239 44.5652 1.46125 44.5312C1.39622 44.5118 1.33768 44.4751 1.29188 44.425C1.26011 44.378 1.24554 44.3215 1.25063 44.265L1.83938 36.3468C1.84214 36.2921 1.86154 36.2396 1.895 36.1962C1.93826 36.1418 1.99681 36.1015 2.06313 36.0806C2.15931 36.0476 2.25926 36.0268 2.36063 36.0187C2.48625 36.0012 2.64063 35.9918 2.82438 35.9918C3.01375 35.9918 3.17 36.0006 3.29313 36.0187C3.41625 36.0306 3.50938 36.0512 3.5725 36.0806C3.64125 36.11 3.68875 36.1487 3.715 36.1962C3.74125 36.2375 3.7525 36.2881 3.74813 36.3468L3.68 37.2612C4.15313 36.7881 4.61438 36.4325 5.06438 36.1962C5.52 35.9593 5.98438 35.8412 6.4575 35.8412C6.78313 35.8412 7.07313 35.8768 7.32813 35.9475C7.58375 36.0125 7.8075 36.11 7.99875 36.2406C8.19688 36.365 8.36313 36.5156 8.4975 36.6931C8.6325 36.8706 8.74188 37.0687 8.82625 37.2881C9.08188 37.0337 9.32875 36.815 9.5675 36.6312C9.81188 36.4475 10.0475 36.3 10.275 36.1875C10.4925 36.0752 10.7224 35.9887 10.96 35.93C11.1853 35.8712 11.4172 35.8414 11.65 35.8412C12.1769 35.8412 12.6138 35.93 12.9619 36.1075C13.31 36.285 13.5819 36.5275 13.7775 36.8356C13.98 37.1375 14.1131 37.4925 14.1775 37.9006C14.2425 38.3295 14.2578 38.7644 14.2231 39.1968L13.8469 44.265ZM22.8012 44.2918C22.7997 44.33 22.7896 44.3673 22.7717 44.401C22.7539 44.4347 22.7288 44.4641 22.6981 44.4868C22.6356 44.5343 22.5381 44.5668 22.4069 44.5843C22.221 44.6123 22.033 44.6242 21.845 44.62C21.5787 44.62 21.3844 44.6081 21.2619 44.5843C21.145 44.5668 21.0613 44.5343 21.0119 44.4868C20.9681 44.4393 20.9494 44.3743 20.9556 44.2918L21.0025 43.6618C20.6622 44.0034 20.2626 44.2802 19.8231 44.4787C19.381 44.6768 18.9013 44.7768 18.4169 44.7718C17.9969 44.7718 17.6131 44.7156 17.2669 44.6031C16.9436 44.5067 16.6442 44.3433 16.3881 44.1237C16.1477 43.9014 15.9644 43.6244 15.8538 43.3162C15.7356 42.9968 15.6925 42.6237 15.7238 42.1975C15.7581 41.7356 15.8763 41.3362 16.0794 40.9993C16.2946 40.65 16.5939 40.3601 16.95 40.1562C17.3275 39.9312 17.7869 39.7656 18.3275 39.6593C18.8681 39.5531 19.4906 39.4993 20.1944 39.4993H20.9669L21.0025 39.02C21.023 38.8035 21.0123 38.5852 20.9706 38.3718C20.9447 38.1981 20.8706 38.0351 20.7569 37.9012C20.6537 37.7768 20.5069 37.685 20.3156 37.6262C20.1306 37.5668 19.8962 37.5375 19.6119 37.5375C19.2388 37.5375 18.9019 37.5787 18.5994 37.6618C18.3293 37.7356 18.0646 37.8275 17.8069 37.9368C17.5744 38.0375 17.3781 38.1293 17.2181 38.2118C17.0638 38.295 16.9394 38.3362 16.845 38.3362C16.7818 38.3368 16.7204 38.3149 16.6719 38.2743C16.622 38.2242 16.584 38.1636 16.5606 38.0968C16.534 38.0043 16.5172 37.9092 16.5106 37.8131C16.5014 37.6889 16.5018 37.5641 16.5119 37.44C16.5256 37.2562 16.5513 37.1118 16.5888 37.005C16.6263 36.8981 16.6894 36.8037 16.7788 36.7212C16.8681 36.6325 17.02 36.5375 17.235 36.4375C17.45 36.3312 17.7 36.2331 17.9844 36.1443C18.286 36.0516 18.5939 35.9804 18.9056 35.9312C19.2449 35.8716 19.5887 35.8419 19.9331 35.8425C20.5544 35.8425 21.0794 35.9043 21.5081 36.0287C21.9431 36.1468 22.2931 36.3337 22.5581 36.5881C22.8237 36.8368 23.0069 37.1593 23.1075 37.5556C23.2081 37.9518 23.2381 38.4225 23.1981 38.9668L22.8012 44.2918ZM20.8612 40.9012H20.0094C19.6481 40.9012 19.3388 40.9281 19.08 40.9812C18.8219 41.0343 18.6087 41.1143 18.4406 41.2206C18.2731 41.3268 18.145 41.4575 18.0562 41.6112C17.9713 41.7704 17.9218 41.9461 17.9113 42.1262C17.8869 42.4575 17.9706 42.7181 18.1638 42.9075C18.3625 43.0968 18.6488 43.1912 19.0212 43.1912C19.335 43.1912 19.6281 43.1112 19.9 42.9518C20.1781 42.7918 20.465 42.5581 20.76 42.2506L20.8612 40.9012ZM29.6075 43.4843C29.5881 43.745 29.5556 43.9462 29.5094 44.0881C29.4694 44.2243 29.4212 44.3218 29.3631 44.3812C29.2886 44.4451 29.2039 44.496 29.1125 44.5318C28.9919 44.5781 28.8675 44.6136 28.7406 44.6381C28.5898 44.6756 28.4365 44.7023 28.2819 44.7181C28.1191 44.7359 27.9556 44.7449 27.7919 44.745C27.3481 44.745 26.9675 44.6887 26.6506 44.5762C26.3337 44.4637 26.0769 44.2925 25.8812 44.0612C25.6856 43.8243 25.5512 43.5287 25.4769 43.1737C25.4025 42.8187 25.3837 42.3987 25.42 41.9131L25.7219 37.8562H24.7719C24.6594 37.8562 24.5788 37.7881 24.5294 37.6518C24.4806 37.51 24.4687 37.2762 24.4925 36.9506C24.505 36.7787 24.5219 36.6337 24.5425 36.5156C24.5688 36.3975 24.5994 36.3056 24.6337 36.2406C24.6595 36.1812 24.6999 36.1293 24.7512 36.09C24.8005 36.0605 24.857 36.0451 24.9144 36.0456H25.855L25.9862 34.2793C25.99 34.2219 26.0094 34.1665 26.0425 34.1193C26.093 34.0647 26.1573 34.0247 26.2287 34.0037C26.32 33.9681 26.4375 33.9443 26.58 33.9325C26.7294 33.915 26.9106 33.9056 27.1237 33.9056C27.3425 33.9056 27.5225 33.9143 27.6631 33.9325C27.81 33.9443 27.9237 33.9681 28.0037 34.0037C28.0708 34.0236 28.1298 34.064 28.1725 34.1193C28.2043 34.1663 28.2188 34.2228 28.2137 34.2793L28.0825 36.0456H29.8044C29.8637 36.0456 29.9125 36.0606 29.9519 36.09C30.0025 36.1271 30.0392 36.1802 30.0562 36.2406C30.0812 36.3056 30.095 36.3975 30.0981 36.5156C30.1069 36.6337 30.105 36.7787 30.0925 36.9506C30.0681 37.2762 30.0212 37.51 29.9519 37.6518C29.8825 37.7881 29.7919 37.8562 29.6794 37.8562H27.9481L27.6712 41.5756C27.6394 42.0075 27.6831 42.3331 27.8025 42.5518C27.9225 42.765 28.1575 42.8712 28.5069 42.8712C28.625 42.8712 28.7325 42.8625 28.8281 42.8443C28.9244 42.8206 29.0094 42.7968 29.0819 42.7731L29.2737 42.7018C29.319 42.6804 29.3681 42.6683 29.4181 42.6662C29.4537 42.6662 29.485 42.6781 29.5131 42.7018C29.5475 42.7193 29.5706 42.7612 29.5837 42.8262C29.5969 42.8856 29.6056 42.9681 29.6094 43.075C29.6212 43.1825 29.62 43.3181 29.6075 43.4843ZM39.4569 40.1906C39.4044 40.895 39.28 41.5312 39.0844 42.0993C38.8944 42.6612 38.64 43.1406 38.3206 43.5375C38.0114 43.9258 37.6176 44.2385 37.1694 44.4518C36.7212 44.665 36.2194 44.7712 35.6631 44.7712C35.4325 44.7712 35.2212 44.7475 35.0294 44.7C34.8403 44.6578 34.6573 44.5923 34.4844 44.505C34.3055 44.4048 34.1359 44.2889 33.9775 44.1587C33.7962 44.0096 33.6242 43.8495 33.4625 43.6793L33.185 47.4075C33.1807 47.4663 33.1579 47.5223 33.12 47.5675C33.0671 47.6235 32.9995 47.6635 32.925 47.6831C32.8394 47.7187 32.725 47.745 32.5819 47.7631C32.4387 47.7812 32.2575 47.79 32.0381 47.79C31.8194 47.79 31.6394 47.7812 31.4987 47.7631C31.3824 47.7514 31.2681 47.7245 31.1587 47.6831C31.0917 47.6632 31.0327 47.6228 30.99 47.5675C30.9582 47.5205 30.9437 47.464 30.9487 47.4075L31.7712 36.3468C31.774 36.2921 31.7934 36.2396 31.8269 36.1962C31.8678 36.1431 31.9231 36.103 31.9862 36.0806C32.0824 36.0476 32.1824 36.0268 32.2837 36.0187C32.4094 36.0012 32.5637 35.9918 32.7475 35.9918C32.925 35.9918 33.0725 36.0006 33.1894 36.0187C33.3125 36.0306 33.4087 36.0512 33.4775 36.0806C33.5525 36.11 33.6025 36.1487 33.6287 36.1962C33.655 36.2375 33.6662 36.2881 33.6619 36.3468L33.5925 37.2787C33.8406 37.0418 34.0812 36.835 34.3131 36.6575C34.5366 36.4834 34.7767 36.3318 35.03 36.205C35.2614 36.0838 35.5068 35.9914 35.7606 35.93C36.0137 35.8706 36.2794 35.8412 36.5575 35.8412C37.1375 35.8412 37.6231 35.9568 38.0144 36.1875C38.4062 36.4125 38.7144 36.7231 38.9394 37.1193C39.17 37.5156 39.3256 37.9775 39.4044 38.5043C39.4844 39.0312 39.5012 39.5931 39.4569 40.1906ZM37.1194 40.3506C37.1444 40.0131 37.1419 39.6906 37.1112 39.3831C37.0936 39.0959 37.0275 38.8138 36.9156 38.5487C36.8261 38.3199 36.6751 38.1203 36.4794 37.9718C36.295 37.8237 36.055 37.75 35.7594 37.75C35.6112 37.75 35.4619 37.7737 35.31 37.8212C35.165 37.8625 35.0119 37.9337 34.8506 38.0343C34.695 38.135 34.5319 38.265 34.36 38.425C34.1639 38.6111 33.9802 38.8098 33.81 39.02L33.6162 41.63C33.9006 42.0262 34.1762 42.3343 34.4444 42.5531C34.7125 42.7662 35.0006 42.8725 35.3081 42.8725C35.5981 42.8725 35.8494 42.7987 36.0612 42.6506C36.2794 42.5025 36.4625 42.3106 36.61 42.0737C36.7581 41.8312 36.8731 41.5587 36.955 41.2568C37.0419 40.9543 37.0969 40.6525 37.1194 40.3506ZM43.1844 44.265C43.1801 44.3238 43.1573 44.3798 43.1194 44.425C43.0643 44.4758 42.9975 44.5123 42.925 44.5312C42.84 44.5606 42.7262 44.5812 42.5831 44.5931C42.44 44.6106 42.2587 44.62 42.0394 44.62C41.82 44.62 41.6406 44.6112 41.5 44.5931C41.384 44.5859 41.2693 44.5652 41.1581 44.5312C41.0931 44.5118 41.0345 44.4751 40.9887 44.425C40.957 44.378 40.9424 44.3215 40.9475 44.265L41.8156 32.5925C41.8199 32.5336 41.8427 32.4776 41.8806 32.4325C41.9311 32.3778 41.9955 32.3378 42.0669 32.3168C42.1581 32.2812 42.2756 32.255 42.4187 32.2368C42.5619 32.2187 42.7431 32.21 42.9625 32.21C43.1812 32.21 43.3612 32.2187 43.5019 32.2368C43.6425 32.255 43.7531 32.2812 43.8331 32.3168C43.92 32.3462 43.9787 32.385 44.0112 32.4325C44.0437 32.48 44.0569 32.5331 44.0525 32.5925L43.1844 44.265ZM59.9306 43.4843C59.9112 43.745 59.8787 43.9462 59.8325 44.0881C59.7925 44.2243 59.7444 44.3218 59.6862 44.3812C59.6117 44.4451 59.527 44.496 59.4356 44.5318C59.315 44.5781 59.1906 44.6136 59.0637 44.6381C58.9129 44.6756 58.7596 44.7023 58.605 44.7181C58.4423 44.7359 58.2787 44.7449 58.115 44.745C57.6712 44.745 57.2906 44.6887 56.9737 44.5762C56.6569 44.4637 56.4 44.2925 56.2044 44.0612C56.0087 43.8243 55.8744 43.5287 55.8 43.1737C55.7256 42.8187 55.7069 42.3987 55.7431 41.9131L56.045 37.8562H55.095C54.9825 37.8562 54.9019 37.7881 54.8525 37.6518C54.8037 37.51 54.7919 37.2762 54.8156 36.9506C54.8281 36.7787 54.845 36.6337 54.8656 36.5156C54.8919 36.3975 54.9225 36.3056 54.9569 36.2406C54.9826 36.1812 55.023 36.1293 55.0744 36.09C55.1236 36.0605 55.1801 36.0451 55.2375 36.0456H56.1781L56.3094 34.2793C56.3131 34.2219 56.3326 34.1665 56.3656 34.1193C56.4161 34.0647 56.4805 34.0247 56.5519 34.0037C56.6431 33.9681 56.7606 33.9443 56.9031 33.9325C57.0525 33.915 57.2337 33.9056 57.4469 33.9056C57.6656 33.9056 57.8456 33.9143 57.9862 33.9325C58.1331 33.9443 58.2469 33.9681 58.3269 34.0037C58.3939 34.0236 58.4529 34.064 58.4956 34.1193C58.5274 34.1663 58.542 34.2228 58.5369 34.2793L58.4056 36.0456H60.1275C60.1869 36.0456 60.2356 36.0606 60.275 36.09C60.3256 36.1271 60.3623 36.1802 60.3794 36.2406C60.4044 36.3056 60.4181 36.3975 60.4212 36.5156C60.43 36.6337 60.4281 36.7787 60.4156 36.9506C60.3912 37.2762 60.3444 37.51 60.275 37.6518C60.2056 37.7881 60.115 37.8562 60.0025 37.8562H58.2712L57.9944 41.5756C57.9625 42.0075 58.0062 42.3331 58.1256 42.5518C58.2456 42.765 58.4806 42.8712 58.83 42.8712C58.9481 42.8712 59.0556 42.8625 59.1512 42.8443C59.2475 42.8206 59.3325 42.7968 59.405 42.7731L59.5969 42.7018C59.6421 42.6804 59.6912 42.6683 59.7412 42.6662C59.7769 42.6662 59.8081 42.6781 59.8362 42.7018C59.8706 42.7193 59.8937 42.7612 59.9069 42.8262C59.92 42.8856 59.9287 42.9681 59.9325 43.075C59.9437 43.1825 59.9425 43.3181 59.9306 43.4843ZM63.7425 44.265C63.7382 44.3238 63.7154 44.3798 63.6775 44.425C63.6224 44.4758 63.5556 44.5123 63.4831 44.5312C63.3981 44.5606 63.2844 44.5812 63.1412 44.5931C62.9607 44.6128 62.7791 44.6217 62.5975 44.62C62.3787 44.62 62.1987 44.6112 62.0581 44.5931C61.9421 44.5859 61.8274 44.5652 61.7162 44.5312C61.6511 44.512 61.5925 44.4752 61.5469 44.425C61.5151 44.378 61.5005 44.3215 61.5056 44.265L62.3737 32.5925C62.3781 32.5331 62.4 32.48 62.4387 32.4325C62.4775 32.385 62.54 32.3468 62.625 32.3168C62.7162 32.2812 62.8337 32.255 62.9769 32.2368C63.12 32.2193 63.3012 32.21 63.5206 32.21C63.74 32.21 63.9194 32.2187 64.06 32.2368C64.2006 32.2543 64.3112 32.2812 64.3912 32.3168C64.4781 32.3462 64.5369 32.385 64.5694 32.4325C64.6011 32.4795 64.6157 32.536 64.6106 32.5925L63.7425 44.265ZM68.2162 44.265C68.2119 44.3238 68.1892 44.3798 68.1512 44.425C68.0961 44.4758 68.0294 44.5123 67.9569 44.5312C67.8719 44.5606 67.7581 44.5812 67.615 44.5931C67.4344 44.6128 67.2529 44.6217 67.0712 44.62C66.8525 44.62 66.6725 44.6112 66.5319 44.5931C66.4159 44.5859 66.3011 44.5652 66.19 44.5312C66.125 44.5118 66.0664 44.4751 66.0206 44.425C65.9889 44.378 65.9743 44.3215 65.9794 44.265L66.5669 36.365C66.5698 36.3087 66.5927 36.2554 66.6312 36.2143C66.6817 36.1597 66.7461 36.1197 66.8175 36.0987C66.9087 36.0631 67.0262 36.0368 67.1694 36.0187C67.3125 36.0012 67.4937 35.9918 67.7131 35.9918C67.9319 35.9918 68.1119 36.0006 68.2525 36.0187C68.3931 36.0362 68.5037 36.0631 68.5837 36.0987C68.6706 36.1281 68.7294 36.1668 68.7619 36.2143C68.7947 36.2573 68.8097 36.3112 68.8037 36.365L68.2162 44.265ZM69.1731 33.6662C69.1394 34.1162 69.025 34.4268 68.8287 34.5981C68.6325 34.7693 68.2856 34.8556 67.7887 34.8556C67.2856 34.8556 66.9519 34.7725 66.7862 34.6068C66.6269 34.4412 66.5631 34.1425 66.5956 33.7106C66.6294 33.2606 66.7406 32.95 66.9312 32.7787C67.1281 32.6012 67.4775 32.5125 67.9806 32.5125C68.4775 32.5125 68.8087 32.5981 68.9731 32.77C69.1387 32.9356 69.205 33.2343 69.1731 33.6662ZM78.7269 40.2C78.6744 40.9043 78.5506 41.5375 78.355 42.0993C78.1594 42.6612 77.9019 43.1406 77.5825 43.5375C77.2631 43.9343 76.8825 44.2387 76.4406 44.4518C76.0044 44.665 75.5175 44.7712 74.9787 44.7712C74.7298 44.773 74.4815 44.7462 74.2387 44.6912C74.0121 44.6438 73.7937 44.5632 73.5906 44.4518C73.3797 44.3308 73.1822 44.188 73.0012 44.0256C72.7939 43.8336 72.6017 43.6259 72.4262 43.4043L72.3625 44.2656C72.3588 44.3273 72.3358 44.3863 72.2969 44.4343C72.2515 44.484 72.1937 44.5207 72.1294 44.5406C72.0562 44.57 71.9569 44.5906 71.8319 44.6025C71.7069 44.6143 71.5556 44.62 71.3781 44.62C71.1944 44.62 71.0412 44.6143 70.9181 44.6025C70.8197 44.5948 70.7228 44.574 70.63 44.5406C70.5729 44.5199 70.5231 44.483 70.4869 44.4343C70.4597 44.3825 70.4486 44.3238 70.455 44.2656L71.3231 32.5931C71.3274 32.5342 71.3502 32.4783 71.3881 32.4331C71.4386 32.3784 71.503 32.3384 71.5744 32.3175C71.6656 32.2818 71.7831 32.2556 71.9262 32.2375C72.0694 32.22 72.2506 32.2106 72.47 32.2106C72.6887 32.2106 72.8687 32.2193 73.0094 32.2375C73.15 32.255 73.2606 32.2818 73.3406 32.3175C73.4275 32.3468 73.4862 32.3856 73.5187 32.4331C73.5505 32.4801 73.5651 32.5366 73.56 32.5931L73.2344 36.9693C73.4506 36.7681 73.6644 36.5962 73.8762 36.4543C74.0881 36.3125 74.2975 36.1968 74.5056 36.1081C74.7137 36.0137 74.9262 35.9456 75.1419 35.9037C75.3659 35.8617 75.5933 35.841 75.8212 35.8418C76.4069 35.8418 76.8956 35.96 77.2862 36.1968C77.6726 36.4225 77.9917 36.7473 78.2106 37.1375C78.4412 37.5337 78.5962 37.9987 78.675 38.5312C78.7525 39.0575 78.7706 39.6137 78.7269 40.2ZM76.3981 40.3593C76.4231 40.0218 76.4206 39.6968 76.3906 39.3831C76.373 39.0959 76.3068 38.8138 76.195 38.5487C76.1001 38.3204 75.9463 38.1213 75.7494 37.9718C75.565 37.8237 75.3219 37.75 75.02 37.75C74.8719 37.75 74.7256 37.7706 74.5806 37.8118C74.4356 37.8531 74.2825 37.9243 74.1212 38.025C73.9656 38.1256 73.8025 38.2556 73.6306 38.4156C73.4587 38.5756 73.2756 38.7737 73.0806 39.0106L72.885 41.6381C73.1687 42.0406 73.4444 42.3481 73.7131 42.5612C73.9875 42.7681 74.2819 42.8718 74.5956 42.8718C74.8856 42.8718 75.1369 42.7981 75.3487 42.65C75.5612 42.5018 75.7412 42.31 75.8887 42.0731C76.0425 41.8362 76.16 41.5668 76.2419 41.2656C76.3226 40.9692 76.3749 40.6657 76.3981 40.3593Z" fill="#11557C"/>
<path d="M55.4363 43.746C57.4348 40.5123 56.4335 36.2707 53.1998 34.2722C49.9661 32.2737 45.7245 33.275 43.726 36.5087C41.7275 39.7424 42.7288 43.984 45.9625 45.9825C49.1962 47.981 53.4378 46.9797 55.4363 43.746Z" fill="white"/>
<path opacity="0.9" d="M49.575 40.12H55.9419M49.575 40.12L54.0762 35.6188M49.575 40.12V33.7538M49.575 40.12L45.0737 35.6188M49.575 40.12H43.2087M49.575 40.12L45.0737 44.6213M49.575 40.12V46.4875M49.575 40.12L54.0762 44.6213" stroke="#858585" stroke-width="0.13" stroke-miterlimit="7.976" stroke-linecap="round" stroke-linejoin="round" stroke-dasharray="0.06 0.12"/>
<path opacity="0.9" d="M50.2825 40.12L50.2612 39.9494L50.1994 39.7887L50.1012 39.6481L49.9706 39.5356L49.8169 39.4562L49.6487 39.4169L49.4769 39.4194L49.3093 39.4644L49.1587 39.5481L49.0325 39.665L48.9387 39.81L48.8825 39.9725L48.8681 40.145L48.8956 40.3162L48.9625 40.475L49.0662 40.6131L49.2006 40.7225L49.3569 40.7944L49.5268 40.8275L49.6987 40.8181L49.8631 40.7681L50.0106 40.6787L50.1325 40.5569L50.2219 40.4094L50.2718 40.245L50.2825 40.12Z" stroke="#818181" stroke-width="0.13" stroke-miterlimit="199.409" stroke-linecap="square" stroke-linejoin="round" stroke-dasharray="0.06 0.12"/>
<path opacity="0.9" d="M51.6969 40.1199L51.6762 39.8243L51.6137 39.5349L51.5131 39.2562L51.3737 38.9949L51.2 38.7555L50.995 38.543L50.7625 38.3599L50.5062 38.2112L50.2312 38.1005L49.9437 38.0299L49.6487 37.9987L49.3531 38.0087L49.0612 38.0599L48.78 38.1518L48.5144 38.2824L48.2687 38.448L48.0487 38.6462L47.8581 38.8737L47.7019 39.1249L47.5812 39.3955L47.5 39.6799L47.4587 39.973V40.2687L47.4994 40.5618L47.5806 40.8455L47.7019 41.1168L47.8581 41.3674L48.0487 41.5949L48.2687 41.7937L48.5144 41.9593L48.78 42.0893L49.0612 42.1812L49.3531 42.2324L49.6487 42.243L49.9431 42.2118L50.2306 42.1405L50.5056 42.0299L50.7619 41.8818L50.995 41.6987L51.2 41.4862L51.3737 41.2468L51.5131 40.9849L51.6144 40.7062L51.6762 40.4174L51.6969 40.1199Z" stroke="#818181" stroke-width="0.13" stroke-miterlimit="199.409" stroke-linecap="square" stroke-linejoin="round" stroke-dasharray="0.06 0.12"/>
<path opacity="0.9" d="M53.1125 40.12L53.0931 39.7512L53.035 39.385L52.9394 39.0275L52.8062 38.6819L52.6381 38.3519L52.4369 38.0419L52.2044 37.7544L51.9431 37.4919L51.655 37.2594L51.3444 37.0581L51.015 36.89L50.6687 36.7575L50.3112 36.6612L49.9462 36.6037L49.5762 36.5837L49.2075 36.6037L48.8419 36.6612L48.4844 36.7575L48.1381 36.89L47.8081 37.0587L47.4981 37.2594L47.2106 37.4925L46.9481 37.7537L46.7162 38.0412L46.515 38.3519L46.3462 38.6819L46.2137 39.0275L46.1181 39.385L46.06 39.7506L46.04 40.12L46.06 40.4894L46.1181 40.855L46.2137 41.2125L46.3469 41.5581L46.515 41.8881L46.7162 42.1987L46.9487 42.4862L47.21 42.7481L47.4981 42.9806L47.8081 43.1819L48.1381 43.3506L48.4844 43.4831L48.8419 43.5787L49.2069 43.6369L49.5762 43.6562L49.9462 43.6369L50.3112 43.5787L50.6687 43.4831L51.015 43.35L51.3444 43.1812L51.655 42.9812L51.9425 42.7481L52.205 42.4862L52.4369 42.1987L52.6381 41.8881L52.8069 41.5581L52.9394 41.2125L53.035 40.855L53.0931 40.4894L53.1125 40.12Z" stroke="#818181" stroke-width="0.13" stroke-miterlimit="199.409" stroke-linecap="square" stroke-linejoin="round" stroke-dasharray="0.06 0.12"/>
<path opacity="0.9" d="M54.5275 40.12L54.5 39.6018L54.4187 39.0906L54.2844 38.59L54.0987 38.1062L53.8631 37.645L53.5806 37.2093L53.255 36.8075L52.8881 36.4406L52.4856 36.1143L52.0506 35.8318L51.5894 35.5968L51.1056 35.4112L50.6044 35.2768L50.0931 35.1956L49.575 35.1681L49.0575 35.1956L48.5456 35.2768L48.0456 35.4112L47.5612 35.5968L47.1 35.8318L46.665 36.1143L46.2625 36.4406L45.8956 36.8075L45.5694 37.2093L45.2869 37.645L45.0519 38.1062L44.8662 38.59L44.7325 39.0906L44.6512 39.6018L44.6231 40.1206L44.6506 40.6381L44.7319 41.1493L44.8662 41.65L45.0519 42.1343L45.2869 42.5956L45.5694 43.0306L45.8956 43.4331L46.2625 43.7993L46.665 44.1256L47.1 44.4081L47.5612 44.6437L48.045 44.8287L48.5456 44.9631L49.0575 45.0443L49.575 45.0725L50.0937 45.0443L50.6044 44.9631L51.1056 44.8287L51.5894 44.6437L52.0506 44.4081L52.4856 44.1256L52.8881 43.7993L53.255 43.4331L53.5806 43.0306L53.8631 42.5956L54.0987 42.1343L54.2844 41.65L54.4181 41.15L54.4994 40.6375L54.5275 40.12Z" stroke="#818181" stroke-width="0.13" stroke-miterlimit="199.409" stroke-linecap="square" stroke-linejoin="round" stroke-dasharray="0.06 0.12"/>
<path d="M49.5757 46.5812C48.7268 46.5835 47.8859 46.4175 47.1017 46.0926C46.3175 45.7678 45.6055 45.2906 45.0069 44.6887C44.405 44.0901 43.9279 43.3781 43.603 42.5939C43.2782 41.8097 43.1121 40.9688 43.1144 40.12C43.1121 39.2711 43.2782 38.4302 43.603 37.646C43.9279 36.8618 44.405 36.1498 45.0069 35.5512C45.6055 34.9493 46.3175 34.4722 47.1017 34.1473C47.8859 33.8225 48.7268 33.6564 49.5757 33.6587C51.3013 33.6587 52.9244 34.3306 54.1444 35.5512C54.7463 36.1498 55.2235 36.8618 55.5483 37.646C55.8731 38.4302 56.0392 39.2711 56.0369 40.12C56.0369 41.8456 55.365 43.4687 54.1444 44.6887C53.5458 45.2906 52.8338 45.7678 52.0496 46.0926C51.2654 46.4175 50.4245 46.5835 49.5757 46.5812ZM49.5757 33.8487C47.9007 33.8487 46.3257 34.5012 45.1413 35.6856C44.5571 36.2666 44.094 36.9576 43.7787 37.7188C43.4634 38.48 43.3022 39.2961 43.3044 40.12C43.3044 41.795 43.9569 43.37 45.1413 44.5543C46.3257 45.7387 47.9007 46.3912 49.5757 46.3912C51.2507 46.3912 52.8257 45.7387 54.01 44.5543C55.1944 43.37 55.8469 41.795 55.8469 40.12C55.8469 38.445 55.1944 36.87 54.01 35.6856C53.429 35.1014 52.738 34.6383 51.9768 34.323C51.2157 34.0077 50.3995 33.8465 49.5757 33.8487Z" fill="#11557C"/>
<path opacity="0.6" d="M49.5756 40.12L49.5894 40.1156L49.6031 40.1112L49.6169 40.1069L49.6306 40.1025L49.6444 40.0981L49.6581 40.0937L49.6719 40.0894L49.6856 40.085L49.6994 40.0806L49.7131 40.0762L49.7269 40.0719L49.7406 40.0675L49.7544 40.0631L49.7681 40.0587L49.7819 40.0544L49.7956 40.05L49.8094 40.0456L49.8231 40.0412L49.8369 40.0369L49.8506 40.0325L49.8644 40.0281L49.8781 40.0237L49.8919 40.0194L49.9056 40.015L49.9194 40.0106L49.9331 40.0062L49.9469 40.0019L49.9606 39.9975L49.9744 39.9931L49.9881 39.9887L50.0019 39.9844L50.0156 39.98L50.0294 39.9756L50.0431 39.9712L50.0569 39.9669L50.0706 39.9625L50.0844 39.9581L50.0981 39.9537L50.1119 39.9494L50.1256 39.945L50.1394 39.9406L50.1531 39.9362L50.1669 39.9319L50.1806 39.9275L50.1944 39.9231L50.2081 39.9187L50.2219 39.9144L50.2356 39.91L50.2494 39.9056L50.2631 39.9012L50.2769 39.8969L50.2906 39.8925L50.3044 39.8881L50.3181 39.8837L50.3319 39.8794L50.3456 39.875L50.3594 39.8706L50.3731 39.8662L50.3869 39.8619L50.4006 39.8575L50.4144 39.8531L50.4281 39.8487L50.4419 39.8444L50.4556 39.84L50.4694 39.8356L50.4831 39.8312L50.4969 39.8269L50.5106 39.8225L50.5244 39.8181L50.5381 39.8137L50.5519 39.8094L50.5656 39.805L50.5794 39.8006L50.5931 39.7962L50.6069 39.7919L50.6206 39.7875L50.6344 39.7831L50.625 39.7794L50.6388 39.775L50.6525 39.7706L50.6662 39.7662L50.68 39.7619L50.6937 39.7575L50.7075 39.7531L50.7212 39.7487L50.735 39.7444L50.7487 39.74L50.7625 39.7356L50.7762 39.7312L50.79 39.7269L50.8038 39.7225L50.8175 39.7181L50.8312 39.7137L50.845 39.7094L50.8587 39.705L50.8725 39.7006L50.8862 39.6962L50.9 39.6919L50.9137 39.6875L50.9275 39.6831L50.9287 39.6875L50.93 39.6919L50.9312 39.6962L50.9325 39.7006L50.9338 39.705L50.935 39.7094L50.9362 39.7137L50.9375 39.7181L50.9387 39.7225L50.94 39.7269L50.9412 39.7312L50.9425 39.7356L50.9437 39.74L50.945 39.7444L50.9462 39.7487L50.9475 39.7531L50.9487 39.7575L50.95 39.7619L50.9513 39.7662L50.9525 39.7706L50.9537 39.775L50.955 39.7794L50.9562 39.7837L50.9575 39.7881L50.9587 39.7925L50.96 39.7969L50.9612 39.8012L50.9625 39.8056L50.9637 39.81L50.965 39.8144L50.9662 39.8187L50.9675 39.8231L50.9681 39.8275L50.9688 39.8319L50.9694 39.8362L50.97 39.8406L50.9706 39.845L50.9712 39.8494L50.9719 39.8537L50.9725 39.8581L50.9731 39.8625L50.9737 39.8669L50.9744 39.8712L50.975 39.8756L50.9756 39.88L50.9762 39.8844L50.9769 39.8887L50.9775 39.8931L50.9781 39.8975L50.9787 39.9019L50.9794 39.9062L50.98 39.9106L50.9806 39.915L50.9812 39.9194L50.9819 39.9237L50.9825 39.9281L50.9831 39.9325L50.9837 39.9369L50.9844 39.9412L50.985 39.9456L50.9856 39.95L50.9862 39.9544L50.9869 39.9587L50.9875 39.9631L50.9881 39.9675L50.9887 39.9719L50.9894 39.9762L50.99 39.9806L50.9906 39.985L50.9912 39.9894L50.9919 39.9937L50.9925 39.9981L50.9931 40.0025L50.9937 40.0069L50.9944 40.0112L50.995 40.0156L50.9956 40.02L50.9962 40.0244V40.1206H49.5875L49.5756 40.12Z" fill="#004CFF"/>
<path opacity="0.6" d="M49.5756 40.12L49.5906 40.08L49.6056 40.04L49.6206 40L49.6356 39.96L49.6506 39.92L49.6656 39.88L49.6806 39.84L49.6956 39.8L49.7106 39.76L49.7256 39.72L49.7406 39.68L49.7556 39.64L49.7706 39.6L49.7856 39.56L49.8006 39.52L49.8156 39.48L49.8306 39.44L49.8456 39.4L49.8606 39.36L49.8756 39.32L49.8906 39.28L49.9056 39.24L49.9206 39.2L49.9356 39.16L49.9506 39.12L49.9656 39.08L49.9806 39.04L49.9956 39L50.0106 38.96L50.0256 38.92L50.0406 38.88L50.0556 38.84L50.0706 38.8L50.0856 38.76L50.1006 38.72L50.1156 38.68L50.1306 38.64L50.1456 38.6L50.1606 38.56L50.1756 38.52L50.1906 38.48L50.2056 38.44L50.2206 38.4L50.2356 38.36L50.2506 38.32L50.2656 38.28L50.2806 38.24L50.2956 38.2L50.3106 38.16L50.3256 38.12L50.3406 38.08L50.3556 38.04L50.3706 38L50.3856 37.96L50.4006 37.92L50.4156 37.88L50.4306 37.84L50.4456 37.8L50.4606 37.76L50.4756 37.72L50.4906 37.68L50.5 37.6562L50.515 37.6162L50.53 37.5762L50.545 37.5362L50.56 37.4962L50.575 37.4562L50.59 37.4162L50.605 37.3762L50.62 37.3362L50.635 37.2962L50.65 37.2562L50.665 37.2162L50.68 37.1762L50.695 37.1362L50.71 37.0962L50.725 37.0562L50.74 37.0162L50.755 36.9762L50.77 36.9362L50.785 36.8962L50.8 36.8562L50.815 36.8162L50.83 36.7762L50.845 36.7362L50.86 36.6962L50.875 36.6562L50.89 36.6162L50.905 36.5762L50.92 36.5362L50.935 36.4962L50.95 36.4562L50.965 36.4162L50.98 36.3762L50.995 36.3362L51.01 36.2962L51.025 36.2562L51.04 36.2162L51.055 36.1762L51.07 36.1362L51.0825 36.1412L51.095 36.1462L51.1075 36.1512L51.12 36.1562L51.1325 36.1612L51.145 36.1662L51.1575 36.1712L51.17 36.1762L51.1825 36.1812L51.195 36.1862L51.2075 36.1912L51.22 36.1962L51.2325 36.2012L51.245 36.2062L51.2575 36.2112L51.27 36.2162L51.2825 36.2219L51.295 36.2275L51.3075 36.2331L51.3194 36.2387L51.3312 36.2444L51.3431 36.25L51.355 36.2556L51.3669 36.2612L51.3787 36.2669L51.3906 36.2725L51.4025 36.2781L51.4144 36.2837L51.4262 36.2894L51.4381 36.295L51.45 36.3006L51.4619 36.3062L51.4737 36.3119L51.4856 36.3181L51.4975 36.3244L51.5094 36.3306L51.5212 36.3369L51.5331 36.3431L51.545 36.3494L51.5569 36.3556L51.5687 36.3619L51.5806 36.3681L51.5925 36.3744L51.6044 36.3806L51.6162 36.3869L51.6281 36.3931L51.64 36.3994L51.6519 36.4056L51.6637 36.4119L51.6756 36.4181L51.6875 36.425L51.6994 36.4319L51.7106 36.4387L51.7219 36.4456L51.7331 36.4525L51.7444 36.4594L51.7556 36.4662L51.7669 36.4731L51.7781 36.48L51.7894 36.4869L51.8006 36.4937L51.8119 36.5006L51.8231 36.5075L51.8344 36.5144L51.8456 36.5212L51.8569 36.5281L51.8681 36.535L51.8794 36.5425L51.8906 36.55L51.9019 36.5575L51.9131 36.565L51.9244 36.5725L51.9356 36.58L51.9469 36.5875L51.9581 36.595L51.9694 36.6025L51.9806 36.61L51.9919 36.6175L52.0031 36.625L52.0144 36.6325L52.025 36.64L52.0356 36.6475L52.0462 36.655L52.0569 36.6625L52.0675 36.67L52.0781 36.6781L52.0887 36.6862L52.0994 36.6944L52.11 36.7025L52.1206 36.7106L52.1313 36.7187L52.1419 36.7269L52.1525 36.735L52.1631 36.7431L52.1737 36.7512L52.1844 36.7594L52.195 36.7675L52.2056 36.7756L52.2162 36.7837L52.2269 36.7919L52.2006 36.825L52.1744 36.8581L52.1481 36.8912L52.1219 36.9244L52.0956 36.9575L52.0694 36.9906L52.0431 37.0237L52.0169 37.0569L51.9906 37.09L51.9644 37.1231L51.9381 37.1562L51.9119 37.1894L51.8856 37.2225L51.8594 37.2556L51.8331 37.2887L51.8069 37.3219L51.7806 37.355L51.7544 37.3881L51.7281 37.4212L51.7019 37.4544L51.6756 37.4875L51.6494 37.5206L51.6231 37.5537L51.5969 37.5869L51.5706 37.62L51.5444 37.6531L51.5181 37.6862L51.4919 37.7194L51.4656 37.7525L51.4394 37.7856L51.4131 37.8187L51.375 37.8637L51.3487 37.8969L51.3225 37.93L51.2962 37.9631L51.27 37.9962L51.2437 38.0294L51.2175 38.0625L51.1912 38.0956L51.165 38.1287L51.1387 38.1619L51.1125 38.195L51.0862 38.2281L51.06 38.2612L51.0337 38.2944L51.0075 38.3275L50.9812 38.3606L50.955 38.3937L50.9287 38.4269L50.9025 38.46L50.8762 38.4931L50.85 38.5262L50.8237 38.5594L50.7975 38.5925L50.7712 38.6256L50.745 38.6587L50.7187 38.6919L50.6925 38.725L50.6662 38.7581L50.64 38.7912L50.6137 38.8244L50.5875 38.8575L50.5612 38.8906L50.535 38.9237L50.5087 38.9569L50.4825 38.99L50.4563 39.0231L50.43 39.0562L50.4038 39.0894L50.3694 39.125L50.3431 39.1581L50.3169 39.1912L50.2906 39.2244L50.2644 39.2575L50.2381 39.2906L50.2119 39.3237L50.1856 39.3569L50.1594 39.39L50.1331 39.4231L50.1069 39.4562L50.0806 39.4894L50.0544 39.5225L50.0281 39.5556L50.0019 39.5887L49.9756 39.6219L49.9494 39.655L49.9231 39.6881L49.8969 39.7212L49.8706 39.7544L49.8444 39.7875L49.8181 39.8206L49.7919 39.8537L49.7656 39.8869L49.7394 39.92L49.7131 39.9531L49.6812 39.9875L49.655 40.0206L49.6287 40.0537L49.6025 40.0869L49.5756 40.12Z" fill="#CEFF29"/>
<path opacity="0.6" d="M49.5756 40.12L49.5394 40.0762L49.5031 40.0325L49.4669 39.9887L49.4306 39.945L49.3944 39.9012L49.3581 39.8575L49.3219 39.8137L49.2856 39.77L49.2494 39.7262L49.2131 39.6825L49.1769 39.6387L49.1406 39.595L49.1044 39.5512L49.0681 39.5075L49.0319 39.4637L48.9956 39.42L48.9594 39.3762L48.9231 39.3325L48.8869 39.2887L48.8506 39.245L48.8144 39.2012L48.7781 39.1575L48.7419 39.1137L48.7056 39.07L48.6694 39.0262L48.6331 38.9825L48.5969 38.9387L48.5606 38.895L48.5244 38.8512L48.4881 38.8075L48.4519 38.7637L48.4156 38.72L48.3794 38.6762L48.3431 38.6325L48.3069 38.5887L48.2706 38.545L48.2344 38.5012L48.1981 38.4575L48.1619 38.4137L48.125 38.3825L48.0888 38.3387L48.0525 38.295L48.0163 38.2512L47.98 38.2075L47.9438 38.1637L47.9075 38.12L47.8713 38.0762L47.835 38.0325L47.7988 37.9887L47.7625 37.945L47.7263 37.9012L47.69 37.8575L47.6538 37.8137L47.6175 37.77L47.5813 37.7262L47.545 37.6825L47.5088 37.6387L47.4725 37.595L47.4363 37.5512L47.4 37.5075L47.3638 37.4637L47.3275 37.42L47.2913 37.3762L47.255 37.3325L47.2188 37.2887L47.1825 37.245L47.1463 37.2012L47.11 37.1575L47.0738 37.1137L47.0375 37.07L47.0013 37.0262L46.965 36.9825L46.9288 36.9387L46.8925 36.895L46.8563 36.8512L46.82 36.8075L46.7838 36.7637L46.7475 36.72L46.7113 36.6762L46.675 36.6325L46.6388 36.5887L46.6025 36.545L46.5663 36.5012L46.53 36.4575L46.4938 36.4137L46.4575 36.37L46.4213 36.3262L46.385 36.2825L46.3488 36.2387L46.3125 36.195L46.2763 36.1512L46.24 36.1075L46.2038 36.0637L46.1675 36.02L46.1313 35.9762L46.095 35.9325L46.0588 35.8887L46.0225 35.845L45.9863 35.8012L45.95 35.7575L45.9706 35.7406L45.9913 35.7237L46.0119 35.7069L46.0325 35.69L46.0531 35.6731L46.0738 35.6569L46.095 35.6406L46.1163 35.6244L46.1375 35.6081L46.1588 35.5919L46.18 35.5756L46.2013 35.5594L46.2225 35.5437L46.2438 35.5281L46.2656 35.5125L46.2875 35.4969L46.3094 35.4812L46.3313 35.4656L46.3531 35.4506L46.375 35.4356L46.3969 35.4206L46.4188 35.4056L46.4406 35.3906L46.4631 35.3756L46.4856 35.3612L46.5081 35.3469L46.5306 35.3325L46.5531 35.3181L46.5756 35.3037L46.5981 35.2894L46.6206 35.2756L46.6431 35.2619L46.6663 35.2481L46.6894 35.2344L46.7125 35.2206L46.7356 35.2069L46.7588 35.1937L46.7819 35.1806L46.805 35.1675L46.8281 35.1544L46.8513 35.1412L46.8744 35.1287L46.8981 35.1162L46.9219 35.1037L46.9456 35.0912L46.9694 35.0787L46.9931 35.0662L47.0169 35.0544L47.0406 35.0425L47.0644 35.0306L47.0881 35.0187L47.1119 35.0069L47.1356 34.9956L47.16 34.9844L47.1844 34.9731L47.2088 34.9619L47.2331 34.9506L47.2575 34.9394L47.2819 34.9287L47.3063 34.9181L47.3306 34.9075L47.355 34.8969L47.3794 34.8862L47.4038 34.8762L47.4281 34.8662L47.4531 34.8562L47.4781 34.8462L47.5031 34.8362L47.5281 34.8262L47.5531 34.8169L47.5781 34.8075L47.6031 34.7981L47.6281 34.7887L47.6531 34.7794L47.6781 34.7706L47.7031 34.7619L47.7281 34.7531L47.7531 34.7444L47.7781 34.7356L47.8031 34.7275L47.8288 34.7194L47.8544 34.7112L47.88 34.7031L47.9056 34.695L47.9313 34.6869L47.9569 34.6794L47.9825 34.6719L48.0081 34.6644L48.0338 34.6569L48.0594 34.6494L48.085 34.6425L48.1106 34.6356L48.1363 34.6287L48.1619 34.6219L48.1875 34.615L48.2131 34.6087L48.2388 34.6025L48.2644 34.5962L48.2906 34.59L48.3169 34.5837L48.3294 34.6387L48.3419 34.6937L48.3544 34.7487L48.3669 34.8037L48.3794 34.8587L48.3919 34.9137L48.4044 34.9687L48.4169 35.0237L48.4294 35.0787L48.4419 35.1337L48.4544 35.1887L48.4669 35.2437L48.4794 35.2987L48.4919 35.3537L48.5044 35.4087L48.5169 35.4637L48.5294 35.5187L48.5419 35.5737L48.5544 35.6287L48.5669 35.6837L48.5794 35.7387L48.5919 35.7937L48.6044 35.8487L48.6169 35.9037L48.6294 35.9587L48.6419 36.0137L48.6544 36.0687L48.6669 36.1237L48.6794 36.1787L48.6919 36.2337L48.7044 36.2887L48.7169 36.3437L48.7294 36.3987L48.7419 36.4537L48.7544 36.5087L48.7669 36.5637L48.7794 36.6187L48.7919 36.6737L48.8044 36.7287L48.8169 36.7837L48.8294 36.8387L48.8419 36.8937L48.8544 36.9487L48.8669 37.0037L48.8794 37.0587L48.8919 37.1137L48.9044 37.1687L48.9169 37.2237L48.9294 37.2787L48.9419 37.3337L48.9544 37.3887L48.9669 37.4437L48.9794 37.4987L48.9919 37.5537L49.0044 37.6087L49.0169 37.6637L49.0294 37.7187L49.0419 37.7737L49.0544 37.8287L49.0669 37.8837L49.0794 37.9387L49.0919 37.9937L49.1044 38.0487L49.1169 38.1037L49.1294 38.1587L49.1419 38.2137L49.1544 38.2687L49.1669 38.3237L49.1794 38.3787L49.1919 38.4337L49.2044 38.4887L49.2169 38.5437L49.2294 38.5987L49.2419 38.6537L49.2544 38.7087L49.2669 38.7637L49.2794 38.8187L49.2919 38.8737L49.3044 38.9287L49.3169 38.9837L49.3294 39.0387L49.3419 39.0937L49.3544 39.1487L49.3669 39.2037L49.3794 39.2587L49.3919 39.3137L49.4044 39.3687L49.4169 39.4237L49.4294 39.4787L49.4419 39.5337L49.4544 39.5887L49.4669 39.6437L49.4794 39.6987L49.4919 39.7537L49.5044 39.8087L49.5169 39.8637L49.5294 39.9187L49.5419 39.9737L49.5544 40.0287L49.5756 40.12Z" fill="#FF6800"/>
<path opacity="0.6" d="M49.5757 40.12L49.5269 40.1288L49.4782 40.1375L49.4294 40.1463L49.3807 40.155L49.3319 40.1638L49.2832 40.1725L49.2344 40.1813L49.1857 40.19L49.1369 40.1988L49.0882 40.2075L49.0394 40.2163L48.9907 40.225L48.9419 40.2338L48.8932 40.2425L48.8444 40.2513L48.7957 40.26L48.7469 40.2688L48.6982 40.2775L48.6494 40.2863L48.6007 40.295L48.5519 40.3038L48.5032 40.3125L48.4544 40.3213L48.4057 40.33L48.3569 40.3388L48.3082 40.3475L48.2594 40.3563L48.2107 40.365L48.1619 40.3738L48.1132 40.3825L48.0644 40.3913L48.0157 40.4L47.9669 40.4088L47.9182 40.4175L47.8694 40.4263L47.8207 40.435L47.7719 40.4438L47.7232 40.4525L47.6744 40.4613L47.6257 40.47L47.5769 40.4788L47.5282 40.4875L47.4794 40.4963L47.4307 40.505L47.3819 40.5138L47.3332 40.5225L47.2844 40.5313L47.2357 40.54L47.1869 40.5488L47.1394 40.5625L47.0907 40.5713L47.0419 40.58L46.9932 40.5888L46.9444 40.5975L46.8957 40.6063L46.8469 40.615L46.7982 40.6238L46.75 40.6332L46.7013 40.6419L46.6525 40.6507L46.6038 40.6594L46.555 40.6682L46.5063 40.6769L46.4575 40.6857L46.4088 40.6944L46.36 40.7032L46.3113 40.7119L46.2625 40.7207L46.2138 40.7294L46.165 40.7382L46.1163 40.7469L46.0675 40.7557L46.0188 40.7644L45.97 40.7732L45.9213 40.7819L45.8725 40.7907L45.8238 40.7994L45.775 40.8082L45.7263 40.8169L45.6775 40.8257L45.6288 40.8344L45.58 40.8432L45.5313 40.8519L45.4825 40.8607L45.4338 40.8694L45.385 40.8782L45.3363 40.8869L45.2875 40.8957L45.2388 40.9044L45.19 40.9132L45.1413 40.9219L45.0925 40.9307L45.0438 40.9394L44.995 40.9482L44.9463 40.9569L44.8975 40.9657L44.8488 40.9744L44.8 40.9832L44.7513 40.9919L44.7025 41.0007L44.6969 40.97L44.6919 40.9394L44.6875 40.9125L44.6825 40.8819L44.6782 40.8513L44.6738 40.8207L44.6694 40.79L44.665 40.7594L44.6613 40.7288L44.6575 40.6982L44.6538 40.6675L44.6507 40.6369L44.6475 40.6057L44.6444 40.5744L44.6419 40.5432L44.6394 40.5119L44.6369 40.4807L44.635 40.4494L44.6332 40.4182L44.6313 40.3869L44.6294 40.3557L44.6282 40.3244L44.6269 40.2932L44.6257 40.2619L44.625 40.2313L44.6244 40.2L44.6238 40.1688V40.075L44.6244 40.0438L44.625 40.0125L44.6257 39.9813L44.6269 39.95L44.6282 39.9188L44.6294 39.8875L44.6307 39.8563L44.6325 39.825L44.6344 39.7938L44.6363 39.7625L44.6388 39.7313L44.6413 39.7L44.6438 39.6688L44.6469 39.6375L44.65 39.6063L44.6532 39.5757L44.6569 39.545L44.6607 39.5144L44.6644 39.4838L44.6688 39.4532L44.6732 39.4225L44.6775 39.3919L44.6819 39.3613L44.6869 39.3307L44.6919 39.3L44.6969 39.2694L44.7025 39.2388L44.7082 39.2082L44.7138 39.1775L44.72 39.1469L44.7263 39.1163L44.7325 39.0857L44.7394 39.055L44.7463 39.0244L44.7532 38.9938L44.76 38.9638L44.7675 38.9338L44.775 38.9038L44.7825 38.8738L44.7907 38.8438L44.7988 38.8138L44.8069 38.7838L44.8157 38.7538L44.8244 38.7238L44.8332 38.6938L44.8419 38.6638L44.8513 38.6338L44.8607 38.6044L44.87 38.575L44.88 38.5457L44.89 38.5163L44.9 38.4869L44.9107 38.4575L44.9213 38.4282L44.9319 38.3988L44.9425 38.3694L44.9538 38.34L44.965 38.3113L44.9763 38.2825L44.9882 38.2538L45 38.2275L45.0119 38.1988L45.0238 38.17L45.0363 38.1413L45.0488 38.1125L45.0613 38.0844L45.0744 38.0563L45.0875 38.0282L45.1007 38L45.1138 37.9719L45.1582 37.9932L45.2025 38.0144L45.2469 38.0357L45.2913 38.0569L45.3357 38.0782L45.38 38.0994L45.4244 38.1207L45.4688 38.1419L45.5132 38.1632L45.5575 38.1844L45.6019 38.2057L45.6463 38.2269L45.6907 38.2482L45.735 38.2694L45.7794 38.2907L45.8238 38.3119L45.8682 38.3332L45.9125 38.3544L45.9569 38.3757L46.0013 38.3969L46.0457 38.4182L46.09 38.4394L46.1344 38.4607L46.1788 38.4819L46.2232 38.5032L46.2675 38.5244L46.3119 38.5457L46.3563 38.5669L46.4007 38.5882L46.445 38.6094L46.4894 38.6307L46.5338 38.6519L46.5782 38.6732L46.6225 38.6944L46.6669 38.7157L46.7113 38.7369L46.7557 38.7582L46.8 38.7794L46.8444 38.8007L46.8888 38.8219L46.9332 38.8432L46.9775 38.8644L47.0219 38.8857L47.0663 38.9069L47.1107 38.9282L47.155 38.9494L47.1994 38.9707L47.2438 38.9919L47.2882 39.0132L47.3325 39.0344L47.3769 39.0557L47.4213 39.0769L47.4657 39.0982L47.51 39.1194L47.5544 39.1407L47.5988 39.1619L47.6432 39.1832L47.6875 39.2044L47.7319 39.2257L47.7763 39.2469L47.8207 39.2682L47.865 39.2894L47.9094 39.3107L47.9538 39.3319L47.9982 39.3532L48.0425 39.3744L48.0869 39.3957L48.1313 39.4169L48.1757 39.4382L48.22 39.4594L48.2644 39.4807L48.3088 39.5019L48.3532 39.5232L48.3975 39.5444L48.4419 39.5657L48.4863 39.5869L48.5307 39.6082L48.575 39.6294L48.6194 39.6507L48.6638 39.6719L48.7082 39.6932L48.7525 39.7144L48.7969 39.7357L48.8413 39.7569L48.8857 39.7782L48.93 39.7994L48.9744 39.8207L49.0188 39.8419L49.0632 39.8632L49.1075 39.8844L49.1519 39.9057L49.1963 39.9269L49.2407 39.9482L49.285 39.9694L49.3294 39.9907L49.3738 40.0119L49.4182 40.0332L49.4625 40.0544L49.5069 40.0757L49.5757 40.12Z" fill="#FFC400"/>
<path opacity="0.6" d="M49.5756 40.12L49.5525 40.1362L49.5294 40.1525L49.5062 40.1687L49.4831 40.185L49.46 40.2012L49.4369 40.2175L49.4137 40.2337L49.3906 40.25L49.3675 40.2662L49.3444 40.2825L49.3212 40.2987L49.2981 40.315L49.275 40.3312L49.25 40.3456L49.2269 40.3619L49.2037 40.3781L49.1806 40.3944L49.1575 40.4106L49.1344 40.4269L49.1112 40.4431L49.0881 40.4594L49.065 40.4756L49.0419 40.4919L49.0187 40.5081L48.9956 40.5244L48.9725 40.5406L48.9494 40.5569L48.9262 40.5731L48.9031 40.5894L48.88 40.6056L48.8569 40.6219L48.8337 40.6381L48.8106 40.6544L48.7875 40.6706L48.7644 40.6869L48.7412 40.7031L48.7181 40.7194L48.695 40.7356L48.6719 40.7519L48.6487 40.7681L48.6256 40.7844L48.6025 40.8006L48.5794 40.8169L48.5562 40.8331L48.5331 40.8494L48.51 40.8656L48.4869 40.8819L48.4637 40.8981L48.4406 40.9144L48.4175 40.9306L48.3944 40.9469L48.3712 40.9631L48.3481 40.9794L48.325 40.9956L48.3019 41.0119L48.2787 41.0281L48.25 41.0387L48.2269 41.055L48.2037 41.0712L48.1806 41.0875L48.1575 41.1037L48.1344 41.12L48.1112 41.1362L48.0881 41.1525L48.065 41.1687L48.0419 41.185L48.0187 41.2012L47.9956 41.2175L47.9725 41.2337L47.9494 41.25L47.9262 41.2662L47.9031 41.2825L47.88 41.2987L47.8544 41.3125L47.8312 41.3287L47.8081 41.345L47.785 41.3612L47.7619 41.3775L47.7387 41.3937L47.7156 41.41L47.6925 41.4262L47.6694 41.4425L47.6462 41.4587L47.6231 41.475L47.6 41.4912L47.5769 41.5075L47.5537 41.5237L47.5306 41.54L47.5075 41.5562L47.4844 41.5725L47.4612 41.5887L47.4381 41.605L47.4125 41.6187L47.3894 41.635L47.3662 41.6512L47.3431 41.6675L47.32 41.6837L47.2969 41.7L47.2737 41.7162L47.2506 41.7325L47.2481 41.7287L47.2456 41.725L47.2431 41.7212L47.2406 41.7175L47.2381 41.7137L47.2356 41.71L47.2331 41.7062L47.2306 41.7025L47.2281 41.6987L47.2256 41.695L47.2231 41.6912L47.22 41.6875L47.2175 41.6837L47.215 41.68L47.2125 41.6762L47.21 41.6725L47.2075 41.6687L47.205 41.665L47.2025 41.6612L47.2 41.6575L47.1975 41.6537L47.195 41.65L47.1925 41.6462L47.19 41.6425L47.1875 41.6387L47.185 41.635L47.1825 41.6312L47.18 41.6275L47.1775 41.6237L47.175 41.62L47.1725 41.6162L47.17 41.6125L47.1675 41.6087L47.165 41.605L47.1625 41.6012L47.16 41.5975L47.1575 41.5937L47.155 41.59L47.1525 41.5862L47.15 41.5825L47.1475 41.5787L47.145 41.575L47.1425 41.5712L47.14 41.5675L47.1375 41.5637L47.135 41.56L47.1325 41.5562L47.13 41.5525L47.1275 41.5487L47.125 41.545L47.1225 41.5412L47.12 41.5375L47.1175 41.5337L47.115 41.53L47.1125 41.5262L47.11 41.5225L47.1075 41.5187L47.105 41.515L47.1031 41.5112L47.1012 41.5075L47.0994 41.5037L47.0975 41.5L47.0956 41.4962L47.0937 41.4925L47.0919 41.4887L47.09 41.485L47.0881 41.4812L47.0862 41.4775L47.0844 41.4737L47.0825 41.47L47.0806 41.4662L47.0787 41.4625L47.0769 41.4587L47.075 41.455L47.0731 41.4512L47.0712 41.4475L47.0694 41.4437L47.0675 41.44L47.0656 41.4362L47.0637 41.4325L47.0619 41.4287L47.06 41.425L47.0581 41.4212L47.0562 41.4175L47.0544 41.4137L47.0525 41.41L47.0506 41.4062L47.0487 41.4025L47.0469 41.3987L47.045 41.395L47.0431 41.3912L47.0412 41.3875L47.0394 41.3837L47.0375 41.38L47.0356 41.3762L47.0337 41.3725L47.0319 41.3687L47.03 41.365L47.0281 41.3612L47.0262 41.3575L47.0519 41.345L47.0775 41.3325L47.1031 41.32L47.1287 41.3075L47.1544 41.295L47.18 41.2825L47.2056 41.27L47.2312 41.2575L47.2569 41.245L47.2825 41.2325L47.3081 41.22L47.3337 41.2075L47.3594 41.195L47.385 41.1825L47.4106 41.17L47.4362 41.1575L47.4619 41.145L47.4875 41.1325L47.5131 41.12L47.5387 41.1075L47.5644 41.095L47.59 41.0825L47.6156 41.07L47.6412 41.0575L47.6669 41.045L47.6925 41.0325L47.7181 41.02L47.7437 41.0075L47.7694 40.995L47.795 40.9825L47.8206 40.97L47.8462 40.9575L47.8719 40.945L47.8975 40.9325L47.9231 40.92L47.9487 40.9075L47.9744 40.895L48 40.8825L48.0256 40.87L48.0512 40.8575L48.0769 40.845L48.1025 40.8325L48.1281 40.82L48.1537 40.8075L48.1794 40.795L48.205 40.7825L48.2306 40.77L48.2562 40.7575L48.2819 40.745L48.3075 40.7325L48.3331 40.72L48.3587 40.7075L48.3844 40.695L48.41 40.6825L48.4356 40.67L48.4612 40.6575L48.4869 40.645L48.5125 40.6325L48.5381 40.62L48.5637 40.6075L48.5894 40.595L48.615 40.5825L48.6406 40.57L48.6662 40.5575L48.6919 40.545L48.7175 40.5325L48.7431 40.52L48.7687 40.5075L48.7944 40.495L48.82 40.4825L48.8456 40.47L48.8712 40.4575L48.8969 40.445L48.9225 40.4325L48.9481 40.42L48.9737 40.4075L48.9994 40.395L49.025 40.3825L49.0506 40.37L49.0762 40.3575L49.1019 40.345L49.1275 40.3325L49.1531 40.32L49.1787 40.3075L49.2044 40.295L49.23 40.2825L49.2556 40.27L49.2812 40.2575L49.3069 40.245L49.3325 40.2325L49.3581 40.22L49.3837 40.2075L49.4094 40.195L49.435 40.1825L49.4606 40.17L49.4862 40.1575L49.5119 40.145L49.5375 40.1325L49.5631 40.12H49.5756Z" fill="#29FFCE"/>
<path opacity="0.6" d="M49.5756 40.12L49.5813 40.155L49.5869 40.19L49.5925 40.225L49.5981 40.26L49.6038 40.295L49.6094 40.33L49.615 40.365L49.6206 40.4L49.6263 40.435L49.6319 40.47L49.6375 40.505L49.6431 40.54L49.6488 40.575L49.6544 40.61L49.66 40.645L49.6656 40.68L49.6713 40.715L49.6769 40.75L49.6825 40.785L49.6881 40.82L49.6938 40.855L49.6994 40.89L49.705 40.925L49.7106 40.96L49.7163 40.995L49.7219 41.03L49.7275 41.065L49.7331 41.1L49.7388 41.135L49.7444 41.17L49.75 41.205L49.7556 41.24L49.7613 41.275L49.7669 41.31L49.7725 41.345L49.7781 41.38L49.7838 41.415L49.7894 41.45L49.795 41.485L49.8006 41.52L49.8063 41.555L49.8119 41.59L49.8175 41.625L49.8231 41.66L49.8288 41.695L49.8344 41.73L49.84 41.765L49.8456 41.8L49.8513 41.835L49.8569 41.87L49.8625 41.905L49.8681 41.94L49.8738 41.975L49.8794 42.01L49.885 42.045L49.8906 42.08L49.8963 42.115L49.9019 42.15L49.9075 42.185L49.9131 42.22L49.9188 42.255L49.9244 42.29L49.93 42.325L49.9356 42.36L49.9413 42.395L49.9469 42.43L49.9525 42.465L49.9581 42.5L49.9638 42.535L49.9694 42.57L49.975 42.605L49.9806 42.64L49.9863 42.675L49.9919 42.71L49.9975 42.745L50.0031 42.78L50.0088 42.815L50.0144 42.85L50.0438 42.875L50.0494 42.91L50.055 42.945L50.0606 42.98L50.0663 43.015L50.0719 43.05L50.0775 43.085L50.0831 43.12L50.0888 43.155L50.0944 43.19L50.1 43.225L50.1056 43.26L50.1113 43.295L50.1169 43.33L50.1225 43.365L50.1281 43.4L50.1338 43.435L50.1394 43.47L50.145 43.505L50.1506 43.54L50.1563 43.575L50.1619 43.61L50.1481 43.6125L50.1344 43.615L50.1206 43.6175L50.1069 43.6194L50.0931 43.6212L50.0794 43.6231L50.0656 43.625L50.0519 43.6269L50.0381 43.6287L50.0244 43.6306L50.0106 43.6325L49.9969 43.6344L49.9831 43.6362L49.9694 43.6381L49.9556 43.6394L49.9419 43.6406L49.9281 43.6419L49.9144 43.6431L49.9006 43.6444L49.8869 43.6456L49.8731 43.6469L49.8594 43.6481L49.8456 43.6494L49.8319 43.6506L49.8181 43.6519L49.8044 43.6531L49.7906 43.6537L49.7769 43.6544L49.7631 43.655L49.7494 43.6556L49.7356 43.6562L49.7219 43.6569L49.7081 43.6575L49.6944 43.6581L49.6806 43.6587L49.6669 43.6594L49.6531 43.66H49.4881L49.4744 43.6594L49.4606 43.6587L49.4469 43.6581L49.4331 43.6575L49.4194 43.6569L49.4056 43.6562L49.3919 43.6556L49.3781 43.655L49.3644 43.6544L49.3506 43.6537L49.3369 43.6531L49.3231 43.6519L49.3094 43.6506L49.2956 43.6494L49.2819 43.6481L49.2681 43.6469L49.2544 43.6456L49.2406 43.6444L49.2269 43.6431L49.2131 43.6419L49.1994 43.6406L49.1856 43.6394L49.1719 43.6381L49.1581 43.6362L49.1444 43.6344L49.1306 43.6325L49.1169 43.6306L49.1025 43.625L49.0888 43.6231L49.075 43.6212L49.0613 43.6194L49.0475 43.6175L49.0338 43.6156L49.02 43.6137L49.0063 43.6112L48.9925 43.6087L48.9788 43.6062L48.965 43.6037L48.9513 43.6012L48.9375 43.5987L48.9238 43.5962L48.91 43.5937L48.8963 43.5912L48.8825 43.5887L48.8688 43.5862L48.855 43.5837L48.8413 43.5806L48.8275 43.5775L48.8138 43.5744L48.8 43.5712L48.7863 43.5681L48.7944 43.5337L48.8025 43.4994L48.8106 43.465L48.8188 43.4306L48.8269 43.3962L48.835 43.3619L48.8431 43.3275L48.8513 43.2931L48.8594 43.2587L48.8675 43.2244L48.8756 43.19L48.8838 43.1556L48.8919 43.1212L48.9 43.0869L48.9081 43.0525L48.9163 43.0181L48.9244 42.9837L48.9325 42.9494L48.9406 42.915L48.9488 42.8806L48.9569 42.8462L48.965 42.8119L48.9731 42.7775L48.9813 42.7431L48.9894 42.7087L48.9975 42.6744L49.0056 42.64L49.0138 42.6056L49.0219 42.5712L49.03 42.5369L49.0381 42.5025L49.0463 42.4681L49.0544 42.4337L49.0625 42.3994L49.0706 42.365L49.0788 42.3306L49.0869 42.2962L49.095 42.2619L49.1031 42.2275L49.1113 42.1931L49.1194 42.1587L49.1275 42.1244L49.1356 42.09L49.1438 42.0556L49.1519 42.0212L49.16 41.9869L49.1681 41.9525L49.1763 41.9181L49.1844 41.8837L49.1925 41.8494L49.2006 41.815L49.2088 41.7806L49.2169 41.7462L49.225 41.7119L49.2331 41.6775L49.2413 41.6431L49.2494 41.6087L49.2575 41.5744L49.2656 41.54L49.2738 41.5056L49.2819 41.4712L49.29 41.4369L49.2981 41.4025L49.3063 41.3681L49.3144 41.3337L49.3225 41.2994L49.3306 41.265L49.3388 41.2306L49.3469 41.1962L49.355 41.1619L49.3631 41.1275L49.3713 41.0931L49.3794 41.0587L49.3875 41.0244L49.3956 40.99L49.4038 40.9556L49.4119 40.9212L49.42 40.8869L49.4281 40.8525L49.4363 40.8181L49.4444 40.7837L49.4525 40.7494L49.4606 40.715L49.4688 40.6806L49.4769 40.6462L49.485 40.6119L49.4931 40.5775L49.5013 40.5431L49.5094 40.5087L49.5175 40.4744L49.5256 40.44L49.5338 40.4056L49.5419 40.3712L49.55 40.3369L49.5581 40.3025L49.5663 40.2681L49.5744 40.2337L49.5825 40.1994L49.5906 40.165L49.5756 40.12Z" fill="#7DFF7A"/>
<path opacity="0.6" d="M49.5756 40.12L49.62 40.155L49.6644 40.19L49.7087 40.225L49.7531 40.26L49.7975 40.295L49.8419 40.33L49.8862 40.365L49.9306 40.4L49.975 40.435L50.0194 40.47L50.0637 40.505L50.1081 40.54L50.1525 40.575L50.1969 40.61L50.2412 40.645L50.2856 40.68L50.33 40.715L50.3744 40.75L50.4187 40.785L50.4631 40.82L50.5075 40.855L50.5519 40.89L50.5962 40.925L50.6406 40.96L50.685 40.995L50.7294 41.03L50.7737 41.065L50.8181 41.1L50.8625 41.135L50.9069 41.17L50.9513 41.205L50.9956 41.24L51.04 41.275L51.0844 41.31L51.1287 41.345L51.1731 41.38L51.2175 41.415L51.2619 41.45L51.3062 41.485L51.3506 41.52L51.395 41.555L51.4394 41.59L51.4837 41.625L51.5281 41.66L51.5725 41.695L51.6169 41.73L51.6612 41.765L51.7056 41.8L51.75 41.835L51.7944 41.87L51.8387 41.905L51.8831 41.94L51.9275 41.975L51.9719 42.01L52.0162 42.045L52.0606 42.08L52.105 42.115L52.1494 42.15L52.1937 42.185L52.2381 42.22L52.2825 42.255L52.3269 42.29L52.3712 42.325L52.4156 42.36L52.46 42.395L52.5044 42.43L52.5487 42.465L52.5931 42.5L52.6375 42.535L52.6819 42.57L52.7262 42.605L52.7706 42.64L52.815 42.675L52.8594 42.71L52.9038 42.745L52.9481 42.78L52.9925 42.815L53.0369 42.85L53.0812 42.885L53.1256 42.92L53.17 42.955L53.2144 42.99L53.2587 43.025L53.3031 43.06L53.3475 43.095L53.3919 43.13L53.4362 43.165L53.4806 43.2L53.525 43.235L53.5694 43.27L53.6137 43.305L53.6581 43.34L53.7025 43.375L53.7469 43.41L53.7912 43.445L53.8356 43.48L53.88 43.515L53.9244 43.55L53.9687 43.585L54.0131 43.62L54.005 43.6306L53.9969 43.6412L53.9888 43.6519L53.9806 43.6625L53.9725 43.6731L53.9644 43.6837L53.9562 43.6944L53.9481 43.705L53.94 43.7156L53.9319 43.7262L53.9231 43.7362L53.9144 43.7462L53.9056 43.7562L53.8969 43.7662L53.8881 43.7762L53.8794 43.7862L53.8706 43.7962L53.8619 43.8062L53.8531 43.8162L53.8444 43.8262L53.8356 43.8362L53.8269 43.8462L53.8181 43.8562L53.8094 43.8662L53.8006 43.8762L53.7919 43.8862L53.7831 43.8962L53.7744 43.9062L53.7656 43.9162L53.7569 43.9262L53.7481 43.9362L53.7394 43.9462L53.7306 43.9562L53.7219 43.9662L53.7131 43.9762L53.7044 43.9862L53.695 43.9962L53.6856 44.0062L53.6763 44.0162L53.6669 44.0262L53.6575 44.0362L53.6481 44.0456L53.6387 44.055L53.6294 44.0644L53.62 44.0737L53.6106 44.0831L53.6012 44.0925L53.5919 44.1019L53.5825 44.1112L53.5731 44.1206L53.5638 44.13L53.5544 44.1394L53.545 44.1487L53.5356 44.1581L53.5262 44.1675L53.5169 44.1769L53.5075 44.1862L53.4981 44.1956L53.4887 44.205L53.4794 44.2144L53.47 44.2237L53.4606 44.2331L53.4513 44.2425L53.4419 44.2519L53.4319 44.2612L53.4219 44.2706L53.4119 44.28L53.4019 44.2894L53.3919 44.2987L53.3819 44.3075L53.3719 44.3162L53.3619 44.325L53.3519 44.3337L53.3419 44.3425L53.3319 44.3512L53.3219 44.36L53.3119 44.3687L53.3019 44.3775L53.2919 44.3862L53.2819 44.395L53.2719 44.4037L53.2619 44.4125L53.2519 44.4212L53.2419 44.43L53.2319 44.4387L53.2219 44.4475L53.2119 44.4562L53.2019 44.465L53.1919 44.4737L53.1819 44.4825L53.1719 44.4912L53.1619 44.5L53.1519 44.5087L53.1419 44.5175L53.1312 44.5262L53.1206 44.5344L53.11 44.5425L53.0994 44.5506L53.0887 44.5587L53.0781 44.5669L53.0431 44.5225L53.0081 44.4781L52.9731 44.4337L52.9381 44.3894L52.9031 44.345L52.8681 44.3006L52.8331 44.2562L52.7981 44.2119L52.7631 44.1675L52.7281 44.1231L52.6931 44.0787L52.6581 44.0344L52.6231 43.99L52.5881 43.9456L52.5531 43.9012L52.5181 43.8569L52.4831 43.8125L52.4481 43.7681L52.4131 43.7237L52.3781 43.6794L52.3431 43.635L52.3081 43.5906L52.2731 43.5462L52.2381 43.5019L52.2031 43.4575L52.1681 43.4131L52.1331 43.3687L52.0981 43.3244L52.0631 43.28L52.0281 43.2356L51.9931 43.1912L51.9581 43.1469L51.9231 43.1025L51.8881 43.0581L51.8531 43.0137L51.8181 42.9694L51.7831 42.925L51.7481 42.8806L51.7131 42.8362L51.6781 42.7919L51.6431 42.7475L51.6081 42.7031L51.5731 42.6587L51.5381 42.6144L51.5031 42.57L51.4681 42.5256L51.4331 42.4812L51.3981 42.4369L51.375 42.3769L51.34 42.3325L51.305 42.2881L51.27 42.2437L51.235 42.1994L51.2 42.155L51.165 42.1106L51.13 42.0662L51.095 42.0219L51.06 41.9775L51.025 41.9331L50.99 41.8887L50.955 41.8444L50.92 41.8L50.885 41.7556L50.85 41.7112L50.815 41.6669L50.78 41.6225L50.745 41.5781L50.71 41.5337L50.675 41.4894L50.64 41.445L50.605 41.4006L50.57 41.3562L50.535 41.3119L50.5 41.2675L50.465 41.2231L50.43 41.1787L50.395 41.1344L50.36 41.09L50.325 41.0456L50.29 41.0012L50.255 40.9569L50.22 40.9125L50.185 40.8681L50.15 40.8237L50.115 40.7794L50.08 40.735L50.045 40.6906L50.01 40.6462L49.975 40.6019L49.9281 40.5625L49.8931 40.5181L49.8581 40.4737L49.8231 40.4294L49.7881 40.385L49.7531 40.3406L49.7181 40.2962L49.6831 40.2519L49.6481 40.2075L49.6131 40.1631L49.5756 40.12Z" fill="#FF6800"/>
<path d="M50.99 40.1631H49.575C49.5649 40.1628 49.5553 40.159 49.5477 40.1523C49.5402 40.1457 49.5352 40.1366 49.5337 40.1267C49.5321 40.1167 49.5341 40.1066 49.5392 40.0979C49.5444 40.0893 49.5524 40.0827 49.5619 40.0794L50.9075 39.6425C50.9183 39.6391 50.9301 39.6401 50.9402 39.6452C50.9504 39.6503 50.9581 39.6592 50.9619 39.67C51.0094 39.8156 51.0331 39.9675 51.0331 40.1206C51.0331 40.1262 51.032 40.1318 51.0298 40.137C51.0276 40.1422 51.0244 40.1469 51.0204 40.1509C51.0164 40.1548 51.0117 40.158 51.0064 40.1601C51.0012 40.1622 50.9956 40.1632 50.99 40.1631ZM49.8475 40.0769H50.9462C50.9424 39.9619 50.9244 39.8479 50.8925 39.7375L49.8475 40.0769Z" fill="#2C2C2C"/>
<path d="M49.5756 40.1631C49.5687 40.163 49.5619 40.1613 49.5558 40.158C49.5497 40.1548 49.5444 40.1501 49.5405 40.1445C49.5365 40.1388 49.534 40.1323 49.533 40.1254C49.5321 40.1185 49.5327 40.1116 49.535 40.105L51.0263 36.1313C51.0282 36.1259 51.0312 36.121 51.0351 36.1169C51.0389 36.1127 51.0436 36.1093 51.0488 36.107C51.054 36.1047 51.0596 36.1034 51.0653 36.1033C51.071 36.1032 51.0766 36.1042 51.0819 36.1063C51.5033 36.2641 51.8971 36.4874 52.2488 36.7681C52.2675 36.7831 52.2707 36.81 52.2557 36.8288L49.6094 40.1469C49.6053 40.1519 49.6002 40.156 49.5944 40.1588C49.5885 40.1616 49.5821 40.1631 49.5756 40.1631ZM51.0919 36.2025L49.7113 39.8806L52.1613 36.8088C51.8365 36.5553 51.4762 36.351 51.0919 36.2025Z" fill="#2C2C2C"/>
<path d="M49.5756 40.1631C49.5693 40.163 49.5631 40.1616 49.5573 40.1589C49.5516 40.1562 49.5466 40.1523 49.5425 40.1475L45.9156 35.8031C45.9119 35.7988 45.9092 35.7937 45.9074 35.7883C45.9057 35.7829 45.9051 35.7772 45.9056 35.7716C45.9062 35.7659 45.9078 35.7604 45.9105 35.7554C45.9132 35.7504 45.9168 35.746 45.9212 35.7425C46.6123 35.1661 47.4297 34.7612 48.3069 34.5606C48.318 34.5581 48.3297 34.5602 48.3394 34.5662C48.3491 34.5723 48.3561 34.582 48.3587 34.5931L49.6181 40.11C49.6202 40.1194 49.6191 40.1293 49.6149 40.138C49.6107 40.1468 49.6037 40.1538 49.595 40.1581C49.5891 40.1615 49.5824 40.1632 49.5756 40.1631ZM46.0094 35.7818L49.4931 39.955L48.2837 34.655C47.4496 34.8523 46.6717 35.2378 46.0094 35.7818Z" fill="#2C2C2C"/>
<path d="M44.7031 41.0475C44.6931 41.0475 44.6833 41.044 44.6756 41.0376C44.6678 41.0313 44.6625 41.0224 44.6606 41.0125C44.4728 39.9745 44.6179 38.9037 45.075 37.9531C45.08 37.9428 45.0888 37.935 45.0996 37.9312C45.1104 37.9275 45.1222 37.9282 45.1325 37.9331L49.5938 40.0812C49.6019 40.0852 49.6085 40.0916 49.6128 40.0996C49.617 40.1076 49.6187 40.1167 49.6175 40.1256C49.6162 40.1346 49.6122 40.143 49.6059 40.1496C49.5996 40.1563 49.5915 40.1607 49.5825 40.1625L44.7106 41.0469L44.7031 41.0475ZM45.1344 38.0294C44.706 38.9408 44.5677 39.9618 44.7381 40.9544L49.4369 40.1019L45.1344 38.0294Z" fill="#2C2C2C"/>
<path d="M47.25 41.7743L47.2425 41.7737C47.237 41.7727 47.2316 41.7706 47.2269 41.7675C47.2222 41.7644 47.2182 41.7603 47.215 41.7556C47.1292 41.632 47.0534 41.5018 46.9882 41.3662C46.9832 41.3559 46.9825 41.344 46.9863 41.3331C46.9901 41.3224 46.998 41.3137 47.0082 41.3087L49.5575 40.0812C49.5674 40.0767 49.5785 40.0759 49.5888 40.079C49.5992 40.0821 49.6081 40.0889 49.6138 40.0981C49.6192 40.1074 49.6209 40.1184 49.6186 40.129C49.6163 40.1395 49.6101 40.1488 49.6013 40.155L47.2757 41.7662C47.2681 41.7713 47.2592 41.7742 47.25 41.7743ZM47.0838 41.3675C47.1363 41.4718 47.1957 41.5737 47.2607 41.6712L49.1007 40.3962L47.0838 41.3675Z" fill="#2C2C2C"/>
<path d="M49.5769 43.7C49.3081 43.7 49.0387 43.67 48.7787 43.6107C48.7676 43.608 48.758 43.6011 48.7519 43.5914C48.7458 43.5817 48.7438 43.57 48.7462 43.5588L49.5331 40.1107C49.5375 40.0907 49.5562 40.0738 49.5762 40.0769C49.5862 40.0772 49.5957 40.0809 49.6032 40.0874C49.6107 40.0939 49.6158 40.1028 49.6175 40.1125L50.21 43.5994C50.2118 43.6107 50.2092 43.6222 50.2027 43.6315C50.1961 43.6409 50.1862 43.6473 50.175 43.6494C49.9774 43.6832 49.7773 43.7002 49.5769 43.7ZM48.84 43.5357C49.2603 43.6253 49.6935 43.6373 50.1181 43.5713L49.5694 40.3407L48.84 43.5357Z" fill="#2C2C2C"/>
<path d="M53.1037 44.5875C53.0972 44.5874 53.0909 44.586 53.085 44.5831C53.0792 44.5803 53.074 44.5763 53.07 44.5712L49.5418 40.1468C49.5352 40.1387 49.5319 40.1283 49.5325 40.1178C49.5331 40.1073 49.5375 40.0974 49.545 40.09C49.5524 40.0825 49.5622 40.0781 49.5727 40.0774C49.5832 40.0767 49.5935 40.0798 49.6018 40.0862L54.0656 43.565C54.0745 43.5721 54.0803 43.5824 54.0817 43.5938C54.0831 43.6051 54.08 43.6165 54.0731 43.6256C53.7976 43.9793 53.4812 44.2993 53.1306 44.5787C53.1227 44.5843 53.1134 44.5873 53.1037 44.5875ZM49.8362 40.3781L53.1106 44.4837C53.4313 44.2238 53.7224 43.9293 53.9787 43.6056L49.8362 40.3781Z" fill="#2C2C2C"/>
</svg>
