<svg width="80" height="80" viewBox="0 0 80 80" fill="none" xmlns="http://www.w3.org/2000/svg">
<g clip-path="url(#clip0_719_3537)">
<path d="M0 57.0706H2.65125V46.6038L6.755 55.7275C7.23812 56.8338 7.9 57.2219 9.20125 57.2219C10.5025 57.2219 11.1375 56.8338 11.6206 55.7275L15.7244 46.6038V57.07H18.3756V46.6213C18.3756 45.6006 17.9681 45.1075 17.1256 44.8538C15.1112 44.2263 13.7613 44.7681 13.1488 46.1281L9.12313 55.1344L5.22438 46.1281C4.63875 44.7681 3.26188 44.2263 1.25 44.8538C0.4075 45.1075 0 45.6006 0 46.6213L0 57.0706ZM20.5812 48.55H23.23V54.3169C23.2056 54.6294 23.33 55.3644 24.7825 55.3888H30.5469V48.5206H33.2031C33.2156 48.5206 33.1981 57.8856 33.1981 57.925C33.2125 60.2344 30.3344 60.735 29.0063 60.7744H20.6375V58.9919L29.0212 58.9894C30.7275 58.8113 30.525 57.9613 30.525 57.6781V56.9825H24.8925C22.2706 56.9581 20.6031 55.8131 20.5812 54.4969C20.5788 54.3775 20.6375 48.6088 20.5812 48.55Z" fill="#00618A"/>
<path d="M35.2444 57.0707H42.8663C43.7575 57.0707 44.6244 56.8826 45.3125 56.5607C46.46 56.0357 47.0188 55.3207 47.0188 54.3857V52.4494C47.0188 51.6851 46.3838 50.9701 45.1338 50.4963C44.4719 50.2401 43.6544 50.1057 42.8656 50.1057H39.6525C38.5831 50.1057 38.0731 49.7832 37.9463 49.0707C37.9219 48.9851 37.9219 48.9169 37.9219 48.8313V47.6251C37.9219 47.5569 37.9219 47.4882 37.9463 47.4032C38.0731 46.8613 38.3538 46.7076 39.2963 46.6219L39.5525 46.6051H47.1206V44.8401H39.68C38.6106 44.8401 38.0494 44.9082 37.5388 45.0601C35.9594 45.5532 35.2706 46.3344 35.2706 47.6944V49.2401C35.2706 50.4288 36.6206 51.4494 38.8888 51.6863L39.6531 51.7207H42.4069C42.5094 51.7207 42.6094 51.7207 42.6875 51.7376C43.5275 51.8057 43.8838 51.9594 44.14 52.2651C44.2719 52.3869 44.3475 52.5607 44.3425 52.7388V54.2869C44.3425 54.4726 44.2156 54.7119 43.9619 54.9144C43.7325 55.1194 43.3494 55.2538 42.8413 55.2882L42.5606 55.3051H35.2444V57.0707ZM63.555 53.9944C63.555 55.8132 64.9075 56.8313 67.6319 57.0363L68.3988 57.0707H75.3056V55.3032H68.3475C66.7925 55.3032 66.2063 54.9126 66.2063 53.9776V44.8363H63.5575V53.9938L63.555 53.9944ZM48.7113 54.0869V47.7857C48.7113 46.1863 49.8369 45.2151 52.0581 44.9094C52.2951 44.8752 52.5343 44.8581 52.7738 44.8582H57.8031C58.0594 44.8582 58.2888 44.8751 58.5456 44.9094C60.7675 45.2144 61.8906 46.1863 61.8906 47.7857V54.0869C61.8906 55.3857 61.4144 56.0794 60.3138 56.5332L62.9263 58.8894H59.8475L57.7356 56.9826L55.6094 57.1169H52.775C52.2482 57.1151 51.7242 57.041 51.2175 56.8969C49.5306 56.4382 48.7125 55.5519 48.7125 54.0869H48.7113ZM51.5725 53.9332C51.5725 54.0188 51.5969 54.1038 51.6238 54.2069C51.7775 54.9394 52.4663 55.3469 53.5131 55.3469H55.9206L53.7088 53.3501H56.7875L58.7163 55.0932C59.0725 54.9026 59.3044 54.6144 59.3875 54.2413C59.4119 54.1557 59.4119 54.0707 59.4119 53.9851V47.9426C59.4119 47.8744 59.4119 47.7888 59.3875 47.7032C59.2338 47.0219 58.545 46.6313 57.5225 46.6313H53.5138C52.3394 46.6313 51.5731 47.1413 51.5731 47.9426L51.5725 53.9332Z" fill="#E48E00"/>
<path d="M77.6369 41.9044C76.0087 41.8606 74.7631 42.0119 73.6987 42.4612C73.3962 42.5881 72.9125 42.5906 72.8637 42.9694C73.03 43.145 73.0569 43.4062 73.1887 43.6187C73.4425 44.0312 73.8725 44.5806 74.2556 44.8687L75.5519 45.7962C76.3475 46.2819 77.2387 46.5606 78.0081 47.0462C78.46 47.3344 78.9087 47.6956 79.3506 48.0206C79.5681 48.1794 79.7144 48.4306 80 48.5306V48.4844C79.8512 48.2937 79.8119 48.0325 79.675 47.835L79.0719 47.2319C78.4837 46.4506 77.7362 45.7644 76.9406 45.1931C76.3056 44.7387 74.89 44.1237 74.6237 43.3862L74.5775 43.34C75.0269 43.2912 75.5544 43.1275 75.9669 43.0175C76.665 42.8294 77.2875 42.8781 78.0056 42.6925L78.98 42.4119V42.2287C78.6162 41.855 78.3575 41.3619 77.9594 41.0225C76.9244 40.1412 75.7912 39.2575 74.6244 38.52C73.9775 38.1125 73.1794 37.8487 72.4931 37.5019C72.2637 37.385 71.8581 37.3262 71.7044 37.1306C71.3456 36.6719 71.15 36.0906 70.8719 35.5556L69.2044 32.035C68.8531 31.2319 68.6231 30.4381 68.1837 29.7181C66.0819 26.2587 63.8162 24.1712 60.3075 22.1206C59.5631 21.6837 58.6619 21.5125 57.715 21.2881L56.1844 21.1956C55.8744 21.0637 55.5519 20.6831 55.2594 20.5C54.0975 19.765 51.1162 18.1687 50.2544 20.2681C49.7125 21.5937 51.0675 22.8875 51.5531 23.5594C51.8925 24.0306 52.3294 24.5581 52.5712 25.0875C52.7325 25.4344 52.7594 25.7831 52.8962 26.1519C53.2331 27.06 53.5262 28.0462 53.9631 28.8862C54.1831 29.3112 54.4244 29.7581 54.7031 30.1362C54.8737 30.3681 55.1669 30.4731 55.2131 30.8319C54.9275 31.2325 54.9106 31.8525 54.7494 32.36C54.0244 34.6425 54.2975 37.4794 55.3525 39.1712C55.675 39.6887 56.4362 40.8019 57.4837 40.375C58.3994 40.0012 58.1944 38.8469 58.4556 37.8262C58.5169 37.5969 58.48 37.4256 58.595 37.2719V37.3181L59.43 38.9856C60.0475 39.9794 61.1412 41.0169 62.0694 41.7175C62.5525 42.0812 62.9312 42.7112 63.5537 42.9237V42.875H63.5075C63.3856 42.6894 63.1975 42.6112 63.0437 42.46C62.68 42.1037 62.2769 41.6619 61.9794 41.2537C61.1344 40.1087 60.3875 38.8537 59.7087 37.5475C59.3837 36.925 59.1006 36.2362 58.8275 35.6019C58.7225 35.3575 58.725 34.9869 58.505 34.8619C58.205 35.3256 57.7631 35.7019 57.5306 36.2512C57.1594 37.1275 57.1131 38.1994 56.9737 39.3081L56.8812 39.3544C56.2369 39.1981 56.0094 38.5344 55.7706 37.965C55.1625 36.5244 55.0506 34.2025 55.585 32.545C55.7219 32.1156 56.3469 30.7625 56.0931 30.3675C55.9737 29.9719 55.5756 29.7425 55.3531 29.44C55.0622 29.0344 54.8136 28.6 54.6112 28.1437C54.1156 27.0181 53.8837 25.7587 53.3612 24.6231C53.1125 24.0787 52.69 23.5294 52.3431 23.0462C51.9575 22.5119 51.5275 22.1187 51.23 21.4712C51.125 21.2419 50.9812 20.8731 51.1375 20.6362C51.1862 20.4775 51.2594 20.4119 51.4156 20.3606C51.6844 20.1531 52.4337 20.4287 52.7119 20.5437C53.4562 20.8537 54.0769 21.1469 54.7062 21.5644C55.0062 21.7644 55.3119 22.1525 55.6781 22.26H56.0956C56.7475 22.4087 57.4775 22.3037 58.0881 22.4894C59.165 22.8162 60.1319 23.3269 61.0056 23.8812C63.6762 25.5656 65.8594 27.9656 67.3531 30.8294C67.595 31.2906 67.6975 31.73 67.91 32.2187C68.3375 33.205 68.8744 34.2206 69.2994 35.185C69.7244 36.1494 70.1369 37.1187 70.735 37.9194C71.05 38.3394 72.2681 38.5637 72.82 38.7981C73.2081 38.9619 73.8431 39.1325 74.2094 39.355C74.9125 39.7775 75.5912 40.28 76.2506 40.7444C76.5775 40.9787 77.5887 41.4869 77.64 41.9037L77.6369 41.9044ZM56.9262 24.2531C56.6459 24.2483 56.3662 24.2794 56.0937 24.3456V24.3919H56.14C56.3012 24.7262 56.5869 24.9412 56.7869 25.2269L57.2506 26.1987L57.2969 26.155C57.585 25.9525 57.7144 25.6275 57.7144 25.1344C57.5975 25.0125 57.5825 24.8612 57.4825 24.7169C57.3506 24.5237 57.095 24.4169 56.9262 24.2531Z" fill="#00618A"/>
</g>
<defs>
<clipPath id="clip0_719_3537">
<rect width="80" height="80" fill="white"/>
</clipPath>
</defs>
</svg>
