<svg width="80" height="80" viewBox="0 0 80 80" fill="none" xmlns="http://www.w3.org/2000/svg">
<path d="M32.6162 35.2831C32.6881 35.2912 32.7562 35.3106 32.8206 35.3381C32.8856 35.37 32.9456 35.4087 32.9956 35.4575C33.0625 35.52 33.125 35.5881 33.185 35.66L38.425 42.2844C38.3835 41.8924 38.3627 41.4985 38.3625 41.1044V35.2606H40.6187V46.2894H39.285C39.1145 46.2945 38.9449 46.2641 38.7868 46.2C38.6298 46.1225 38.4944 46.0074 38.3925 45.865L33.1925 39.3037C33.2075 39.4931 33.2194 39.6806 33.23 39.865C33.24 40.0494 33.2444 40.2212 33.2444 40.3837V46.2962H30.9906V35.2619H32.3375C32.4294 35.2619 32.5244 35.2687 32.6162 35.2831ZM43.9237 38.4387V43.4187C43.9237 43.8081 44.0112 44.1075 44.1881 44.3194C44.2852 44.4288 44.4062 44.5144 44.5416 44.5696C44.6771 44.6249 44.8234 44.6483 44.9693 44.6381C45.2181 44.6381 45.465 44.5862 45.6925 44.4794C45.9308 44.3631 46.1508 44.2125 46.3456 44.0325V38.4387H48.6925V46.2875H47.2406C47.1137 46.2983 46.9869 46.265 46.8816 46.1933C46.7763 46.1216 46.6989 46.0158 46.6625 45.8937L46.52 45.44C46.3733 45.5838 46.2167 45.7171 46.0512 45.8387C45.7165 46.0814 45.3352 46.252 44.9312 46.34C44.7035 46.3903 44.4707 46.4146 44.2375 46.4125C43.8473 46.4194 43.4601 46.3429 43.1018 46.1881C42.779 46.0467 42.4928 45.8333 42.265 45.5644C42.0312 45.2873 41.8558 44.9659 41.7494 44.6194C41.6303 44.2317 41.5713 43.828 41.5743 43.4225V38.4394L43.9237 38.4387ZM50.2062 46.29V38.4387H51.66C51.7893 38.4341 51.9172 38.4678 52.0275 38.5356C52.1294 38.6075 52.2034 38.7123 52.2369 38.8325L52.3612 39.2562C52.4894 39.1215 52.6259 38.995 52.77 38.8775C52.9119 38.763 53.0659 38.6645 53.2294 38.5837C53.5866 38.4017 53.9828 38.3092 54.3837 38.3144C54.8067 38.2972 55.2226 38.4265 55.5612 38.6806C55.88 38.9369 56.125 39.2762 56.2669 39.6606C56.3919 39.4294 56.5543 39.2169 56.7481 39.0394C56.9322 38.8728 57.1385 38.7327 57.3612 38.6231C57.5832 38.5176 57.8169 38.4389 58.0575 38.3887C58.2978 38.3389 58.5426 38.3137 58.7881 38.3137C59.196 38.3063 59.6017 38.3741 59.985 38.5137C60.317 38.6384 60.6157 38.838 60.8581 39.0969C61.1019 39.3687 61.285 39.6881 61.3918 40.0375C61.5196 40.4459 61.5812 40.8721 61.5743 41.3V46.2875H59.2269V41.3012C59.2269 40.4887 58.8781 40.0844 58.1819 40.0844C57.8881 40.075 57.6006 40.1894 57.3919 40.3987C57.1819 40.6062 57.0775 40.9075 57.0775 41.3019V46.2894H54.7325V41.3019C54.7325 40.8525 54.645 40.5362 54.4681 40.3569C54.2906 40.1744 54.0312 40.0844 53.6869 40.0844C53.4784 40.0838 53.2728 40.1326 53.0869 40.2269C52.8904 40.3281 52.7102 40.4583 52.5525 40.6131V46.2925L50.2062 46.29ZM65.4968 42.6031V46.2894H62.9375V35.2612H66.8281C67.5059 35.2461 68.1818 35.3387 68.8306 35.5356C69.3368 35.6901 69.8056 35.9475 70.2075 36.2919C70.5607 36.6048 70.8349 36.997 71.0075 37.4362C71.1806 37.8894 71.2644 38.3737 71.2593 38.8575C71.2645 39.3748 71.1749 39.8887 70.995 40.3737C70.8225 40.8259 70.5446 41.2305 70.1843 41.5537C69.7835 41.9047 69.3127 42.1665 68.8031 42.3219C68.1642 42.5213 67.4973 42.6165 66.8281 42.6037L65.4968 42.6031ZM65.4968 40.6731H66.8281C67.4944 40.6731 67.9756 40.5162 68.2675 40.1969C68.5593 39.8781 68.7062 39.4387 68.7062 38.8656C68.7094 38.6313 68.6715 38.3982 68.5944 38.1769C68.5218 37.975 68.404 37.7924 68.25 37.6431C68.0828 37.4865 67.8837 37.3682 67.6662 37.2962C67.3958 37.2089 67.1129 37.1666 66.8287 37.1712H65.4968V40.6731ZM75.8081 48.3269C75.7548 48.4616 75.6679 48.5803 75.5556 48.6719C75.4082 48.7558 75.2391 48.7937 75.07 48.7806H73.3087L74.825 45.6031L71.6931 38.4381H73.7656C73.9173 38.4309 74.0668 38.4759 74.1894 38.5656C74.2866 38.6386 74.3604 38.7382 74.4019 38.8525L75.6887 42.2362C75.8075 42.5406 75.9056 42.8525 75.9825 43.1712C76.0344 43.0094 76.0893 42.85 76.1493 42.695C76.2108 42.5374 76.2691 42.3786 76.3244 42.2187L77.4912 38.85C77.5339 38.7284 77.6174 38.6252 77.7275 38.5581C77.8406 38.4831 77.9731 38.4406 78.1075 38.4406H80L75.8081 48.3269Z" fill="#003042"/>
<path d="M11.1531 31.6725L6.46688 29.3081L1.32251 31.875L6.13813 34.2912L11.1531 31.6725ZM13.3031 32.7569L18.2156 35.2381L13.1181 37.7969L8.29813 35.3781L13.3031 32.7569ZM19.8675 29.3431L24.915 31.875L20.4013 34.1419L15.4756 31.6581L19.8675 29.3431ZM17.6925 28.2531L13.1488 25.9744L8.65189 28.2181L13.335 30.5781L17.6925 28.2531ZM14.1413 47.8231V54.0262L19.645 51.2775L19.64 45.0725L14.1413 47.8231ZM19.6375 42.9081L19.6325 36.7681L14.1413 39.4987V45.6412L19.6375 42.9081ZM26.25 41.7581V47.9856L21.5531 50.3275L21.5488 44.13L26.25 41.7581ZM26.25 39.5806V33.4781L21.5438 35.8181L21.5488 41.97L26.25 39.5806Z" fill="#4DABCF"/>
<path d="M12.1956 39.4988L8.48938 37.6332V45.6907C8.48938 45.6907 3.95313 36.0394 3.53438 35.1738C3.47938 35.0613 3.2575 34.9363 3.2 34.9069C2.13525 34.3588 1.06857 33.8144 0 33.2738L0 47.5163L3.2975 49.2819V41.8344C3.2975 41.8344 7.78438 50.4594 7.82875 50.5532C7.87625 50.6488 8.32563 51.5557 8.80625 51.8751C9.4475 52.2988 12.1938 53.9526 12.1938 53.9526L12.1956 39.4988Z" fill="#4C75CF"/>
</svg>
