<svg width="80" height="80" viewBox="0 0 80 80" fill="none" xmlns="http://www.w3.org/2000/svg">
<path fill-rule="evenodd" clip-rule="evenodd" d="M32.3962 14.3856C34.7437 14.3856 37.0912 14.4219 39.4356 14.3606C40.0575 14.3444 41.1731 14.8587 41.1231 13.5662C41.085 12.5144 40.1094 12.895 39.5181 12.8856C36.87 12.8437 34.2131 12.7431 31.5756 12.9087C29.6987 13.0256 29.1456 12.3131 29.3812 10.5919C29.4625 9.99812 29.3844 9.38312 29.3969 8.77812C29.4794 4.74937 30.4531 3.37812 34.3606 2.38437C38.6656 1.29062 43.0712 1.32687 47.3644 2.26937C51.2237 3.11687 52.8269 6.11937 52.6319 8.89687C52.3944 12.2862 52.5781 15.705 52.575 19.1112C52.5694 23.3944 50.3562 25.6675 46.0381 25.7269C42.4819 25.7756 38.9212 25.8144 35.3669 25.7156C31.1306 25.5969 28.0231 29.1156 28.0019 33.1031C28.0019 33.4056 28.0537 33.7181 27.9937 34.01C27.6887 35.4744 28.9075 37.8412 27.355 38.2762C24.9925 38.94 22.2262 38.94 20.1425 36.8319C19.4362 36.1194 18.8412 35.3212 18.5275 34.3987C16.8531 29.4831 16.5887 24.505 18.165 19.5125C19.1475 16.3962 21.82 14.4581 25.1306 14.4025C27.5519 14.3619 29.9737 14.3944 32.395 14.3944L32.3962 14.3856ZM36.71 7.43562C36.6087 6.24624 35.9694 5.37812 34.65 5.34187C33.2069 5.30437 32.4612 6.17687 32.4594 7.59687C32.4581 8.91312 33.175 9.75624 34.485 9.79437C35.9244 9.83624 36.6212 8.94437 36.71 7.43562Z" fill="#386F9F"/>
<path fill-rule="evenodd" clip-rule="evenodd" d="M50.515 38.4825C47.865 38.4825 45.2137 38.4594 42.5637 38.5013C41.9669 38.5088 40.9656 38.1313 40.9344 39.1519C40.8994 40.3094 41.9737 40.0081 42.6562 40.015C45.3062 40.0481 47.9587 40.0763 50.6081 40.0025C51.9694 39.965 52.525 40.2256 52.6269 41.8306C53.0875 49.0963 49.9344 49.7244 44.1187 51.0463C40.7825 51.8044 37.2056 51.4025 33.9156 49.9288C31.195 48.7119 29.5256 46.9581 29.7362 43.6744C29.945 40.4331 29.98 37.15 29.7306 33.9119C29.4306 30.0038 31.8619 27.1294 36.59 27.1281C39.7712 27.1275 42.9737 26.885 46.1275 27.175C50.6369 27.5888 54.1725 23.68 54.3275 19.135C54.3337 18.9844 54.295 18.8225 54.3337 18.6825C54.7312 17.2856 53.3175 15.2094 55.2087 14.5038C58.0669 13.4381 61.29 14.5581 62.75 16.7269C64.5906 19.4575 64.8394 22.6706 65.1369 25.8081C65.4587 29.19 64.51 32.3738 63.0894 35.4244C62.1244 37.4931 60.5019 38.4931 58.2412 38.4963C55.6662 38.4981 53.0919 38.4963 50.5162 38.4963C50.515 38.4913 50.515 38.4869 50.515 38.4825ZM49.825 45.2325C49.5419 43.9413 48.9594 43.06 47.4594 43.0231C45.8994 42.9856 45.4969 44.1525 45.505 45.1944C45.5137 46.3019 45.8225 47.6644 47.5112 47.5369C48.915 47.4294 49.5994 46.56 49.825 45.2325Z" fill="#FFCF46"/>
<path fill-rule="evenodd" clip-rule="evenodd" d="M8.83062 71.7806C8.83062 73.3944 8.90374 74.9056 8.79624 76.4038C8.74999 77.05 9.46249 78.2663 8.10687 78.265C6.91187 78.265 6.60499 77.3138 6.64312 76.1644C6.71624 73.9706 6.66437 71.7725 6.66437 69.5769V64.5781C6.66437 61.5656 7.47249 60.5456 10.3537 59.9219C13.0325 59.3394 15.1375 60.2413 16.22 62.5863C17.3025 64.9319 17.3862 67.3488 16.3031 69.735C15.2356 72.0863 13.2694 72.9638 10.7506 72.2669C10.1769 72.1106 9.59749 71.975 8.83062 71.7806ZM8.83062 65.8756C8.83062 66.7069 8.94312 67.5544 8.80749 68.3631C8.49374 70.2325 9.68749 70.6931 11.095 71.0256C12.4869 71.3544 13.4412 70.7625 13.9994 69.5363C14.9375 67.48 15.095 65.3594 14.3825 63.185C13.75 61.2525 12.2894 61.0263 10.5844 61.2663C8.90062 61.5056 8.67249 62.6506 8.81937 64.0663C8.88187 64.6631 8.83062 65.2725 8.83062 65.8756ZM26.9475 71.6806C25.7944 71.9806 24.7931 72.3006 23.7681 72.4931C21.5244 72.9125 19.8631 71.6806 19.2787 69.4344C18.5537 66.6544 19.1675 63.885 19.1862 61.1113C19.1944 59.8469 20.3644 60.34 21.1737 59.6625C21.1737 62.6313 21.185 65.1938 21.17 67.7544C21.1619 69.0406 21.4944 70.0981 22.7106 70.7763C24.0531 71.525 25.1544 70.8119 26.3231 70.3313C27.1606 69.9869 27.0562 69.2838 27.0575 68.615C27.0637 66.195 27.0569 63.7775 27.065 61.3575C27.0662 60.7606 27.0044 60.0313 27.8856 60.0606C28.6712 60.0863 29.0131 60.5531 29 61.4094C28.9431 65.4138 29.0562 69.4238 28.8937 73.4225C28.7706 76.4463 26.6375 78.2931 23.5687 78.4288C23.1094 78.4481 22.6281 78.4906 22.4562 77.9206C22.1944 77.0431 22.905 77.2088 23.3719 77.0594C26.7475 75.9856 27.1887 75.3444 26.9475 71.6806ZM41.2125 61.29C42.1056 60.8681 42.6187 60.4819 43.1831 60.3775C46.35 59.7919 48.7769 60.015 48.7706 64.2806C48.7662 66.4775 48.7719 68.675 48.7662 70.8713C48.765 71.4863 48.8044 72.085 47.8875 72.1381C46.9206 72.1956 46.7081 71.6425 46.7125 70.8844C46.7237 68.7675 46.7812 66.6506 46.7794 64.5344C46.7781 62.8906 46.4425 61.4356 44.3519 61.4406C42.5181 61.4438 41.2194 62.8125 41.21 64.7013C41.1995 66.7458 41.2001 68.7904 41.2119 70.835C41.2137 71.5613 41.2294 72.1981 40.1794 72.1381C39.2337 72.0819 39.35 71.4444 39.35 70.8575C39.3437 65.4825 39.37 60.1019 39.3244 54.7231C39.3162 53.7806 39.6881 53.1956 40.5244 53.1556C41.7044 53.1013 41.1637 54.1331 41.1812 54.6506C41.2581 56.7575 41.2125 58.8694 41.2125 61.29ZM51.2062 66.1094C51.0869 61.9125 53.0775 59.6719 56.6812 59.8019C58.49 59.8681 59.8469 60.6706 60.7225 62.2331C62.2694 64.9969 62.06 67.7619 60.3862 70.35C59.2362 72.1275 57.4675 72.9656 55.3112 72.5081C53.185 72.0581 51.52 70.1438 51.2187 67.9125C51.1387 67.3219 51.2062 66.71 51.2062 66.1094ZM59.5312 66.2075C59.4362 65.475 59.4531 64.4538 59.1481 63.5425C58.7312 62.2925 57.9712 61.2863 56.4206 61.2175C54.8562 61.15 54.0756 62.0644 53.5537 63.33C52.7344 65.3169 52.7875 67.3119 53.675 69.2631C54.245 70.52 55.125 71.44 56.65 71.185C58.1519 70.9344 59.0381 69.95 59.345 68.4894C59.4844 67.8275 59.4619 67.1338 59.5312 66.2075ZM63.9106 66.7669C63.9106 66.0094 63.8962 65.2531 63.9131 64.4994C63.9481 63.0463 63.485 61.4363 65.4444 60.6938C67.6881 59.8463 69.9119 59.2113 72.1706 60.5231C73.0156 61.0144 73.3269 61.9069 73.3356 62.8544C73.3587 65.4988 73.3237 68.1444 73.3594 70.7888C73.3719 71.7113 73.1294 72.1725 72.0925 72.1475C70.9562 72.1206 71.1956 71.3456 71.2031 70.7269C71.23 68.6144 71.3769 66.5038 71.3369 64.3944C71.2844 61.7381 69.8269 60.655 67.3437 61.3069C66.3137 61.5781 65.67 62.0781 65.7206 63.3531C65.8212 65.8419 65.7437 68.3394 65.7531 70.8325C65.7556 71.555 65.7662 72.195 64.7237 72.1344C63.7687 72.0794 63.925 71.4188 63.9175 70.8456C63.9 69.4856 63.9125 68.125 63.9106 66.7669ZM36.6806 60.8769C36.5244 61.0619 36.3931 61.3519 36.2556 61.3544C33.7781 61.3888 34.4656 63.2381 34.4019 64.61C34.3412 65.8881 34.4019 67.1725 34.3837 68.4544C34.365 69.7281 34.4756 70.9119 36.0256 71.25C36.47 71.3463 36.6725 71.6025 36.58 72.0463C36.4781 72.5363 36.0875 72.5169 35.7006 72.5119C33.9194 72.4806 32.5987 71.2213 32.5462 69.3775C32.4925 67.4938 32.5656 65.6056 32.5212 63.7238C32.4981 62.83 32.9625 61.6894 31.5212 61.335C31.3631 61.2969 31.3069 60.8488 31.2037 60.5931C33.1262 59.99 32.3287 58.3319 32.5925 57.0738C32.7175 56.4781 33.2831 56.315 33.8175 56.2644C34.3581 56.2131 34.3625 56.6506 34.38 57.0163C34.4512 58.4663 33.7006 60.4069 36.37 60.3013C36.4594 60.2981 36.5637 60.6531 36.6806 60.8769Z" fill="#386F9F"/>
</svg>
